<svg width="328" height="284" viewBox="0 0 328 284" fill="none" xmlns="http://www.w3.org/2000/svg">
<g clip-path="url(#clip0)">
<path d="M68.3904 207.199V206.935" stroke="black" stroke-width="2" stroke-miterlimit="10"/>
<path d="M101.771 0.765519C100.523 0.60621 99.2662 0.526863 98.0081 0.527965" stroke="black" stroke-width="2" stroke-miterlimit="10"/>
<path d="M99.2562 206.906C98.8437 206.927 98.4259 206.935 98.0081 206.935" stroke="black" stroke-width="2" stroke-miterlimit="10"/>
<path d="M68.4591 179.366C68.4115 178.709 68.3904 178.046 68.3904 177.373" stroke="black" stroke-width="2" stroke-miterlimit="10"/>
<path d="M275.714 188.348C275.714 193.348 273.724 198.142 270.182 201.678C266.641 205.213 261.837 207.199 256.828 207.199H97.7199C81.3852 207.199 68.126 194.577 68.126 179.007V36.021H68.1445C68.1313 35.6013 68.126 35.179 68.126 34.7567C68.126 15.5729 81.3852 0 97.7199 0C98.6963 0.000332682 99.672 0.0567347 100.642 0.168927H160.536L160.705 0.192682C165.2 0.841284 169.31 3.0845 172.283 6.51142C175.255 9.93834 176.891 14.3195 176.891 18.8525C176.891 23.3854 175.255 27.7666 172.283 31.1935C169.31 34.6205 165.2 36.8637 160.705 37.5123V37.8712H124.786C122.305 37.8709 119.849 38.3583 117.558 39.3055C115.266 40.2527 113.184 41.6413 111.43 43.3918C109.676 45.1424 108.285 47.2207 107.336 49.508C106.387 51.7953 105.899 54.2467 105.899 56.7224V151.905H105.944C106.265 156.674 108.39 161.143 111.888 164.407C115.387 167.671 119.997 169.487 124.786 169.486H256.828C259.309 169.486 261.766 169.974 264.058 170.922C266.35 171.87 268.432 173.26 270.186 175.011C271.94 176.763 273.331 178.842 274.28 181.131C275.228 183.419 275.716 185.871 275.714 188.348Z" fill="#333CC1"/>
<path d="M99.2696 206.935L99.2563 206.906" stroke="black" stroke-width="2" stroke-miterlimit="10"/>
<path d="M101.79 0.527954C101.79 0.607138 101.79 0.688962 101.771 0.765507" stroke="black" stroke-width="2" stroke-miterlimit="10"/>
<path d="M68.3904 207.199V206.935" stroke="black" stroke-width="2" stroke-miterlimit="10"/>
<path d="M256.828 62.2917V78.2817H124.786V62.2917C124.785 61.2746 124.986 60.2674 125.376 59.3277C125.765 58.388 126.337 57.5341 127.057 56.8149C127.778 56.0958 128.633 55.5253 129.575 55.1363C130.516 54.7472 131.525 54.5471 132.544 54.5475H249.069C250.088 54.5471 251.097 54.7472 252.038 55.1363C252.98 55.5253 253.835 56.0958 254.556 56.8149C255.276 57.5341 255.848 58.388 256.238 59.3277C256.628 60.2674 256.828 61.2746 256.828 62.2917Z" fill="#FDA741"/>
<path d="M124.786 91.3972V143.588C124.785 144.605 124.986 145.612 125.376 146.552C125.765 147.491 126.337 148.345 127.057 149.064C127.778 149.784 128.633 150.354 129.575 150.743C130.516 151.132 131.525 151.332 132.544 151.332H249.069C250.088 151.332 251.097 151.132 252.038 150.743C252.98 150.354 253.835 149.784 254.556 149.064C255.276 148.345 255.848 147.491 256.238 146.552C256.628 145.612 256.828 144.605 256.828 143.588V91.3972H124.786ZM238.108 113.279H219.221V102H238.108V113.279Z" fill="#FDA741"/>
<path d="M25.6378 260.443C25.5241 264.502 24.0697 273.471 13.1296 273.471C2.28744 273.471 0 265.579 0 253.065C0 238.875 4.49554 232.82 13.4866 232.82C23.9692 232.82 25.5162 240.823 25.6299 245.49H16.6388C16.5647 243.299 16.5066 239.907 13.3518 239.907C10.2631 239.929 9.4565 243.5 9.4565 253.097C9.4565 261.522 9.92986 266.447 13.238 266.447C16.3135 266.447 16.5066 262.797 16.6203 260.443H25.6378Z" fill="#333CC1"/>
<path d="M51.3523 263.156C51.3523 268.171 51.3523 271.201 51.4105 272.729H42.9721C42.7947 271.705 42.6772 270.671 42.6204 269.633C41.0998 272.302 38.9658 273.231 35.8427 273.231C31.3233 273.231 28.3219 270.945 28.3219 264.172V242.185H37.2231V262.528C37.2231 264.927 37.707 266.152 39.5846 266.152C41.5943 266.152 42.4723 264.998 42.4723 261.543V242.191H51.3629L51.3523 263.156Z" fill="#333CC1"/>
<path d="M62.1839 263.256C62.2262 265.104 62.9138 266.994 65.1589 266.994C66.9069 266.994 67.6711 266.03 67.6711 264.497C67.6711 262.763 66.8778 261.857 63.5485 260.649C56.4429 258.057 54.4516 255.634 54.4516 250.785C54.4516 246.192 57.2547 241.652 64.9474 241.652C73.9041 241.652 75.5595 247.367 75.5595 251.212H67.5495C67.5495 249.837 67.3485 247.71 65.0161 247.71C63.6119 247.71 62.8662 248.591 62.8662 249.938C62.8662 251.534 63.7679 252.313 67.2771 253.583C73.793 255.958 76.2814 258.563 76.2814 263.423C76.2814 269.586 72.7035 273.257 64.9897 273.257C56.6042 273.257 53.8963 268.395 53.8354 263.256H62.1839Z" fill="#333CC1"/>
<path d="M76.4374 242.191H80.0894V234.982H88.8795V242.191H93.0894V249.204H88.8795V263.816C88.8795 265.437 89.2524 266.244 91.2013 266.244C91.6775 266.261 92.1543 266.229 92.624 266.149V272.502C91.0823 273.083 88.8795 273.141 87.671 273.141C81.9193 273.141 80.0021 270.956 80.0021 265.342V249.204H76.4321L76.4374 242.191Z" fill="#333CC1"/>
<path d="M118.27 257.138C118.27 269.253 113.51 273.294 106.045 273.294C98.8411 273.294 94.0944 269.335 94.0944 257.291C94.0944 245.714 99.3436 241.689 106.351 241.689C113.616 241.689 118.27 246.116 118.27 257.138ZM103.104 257.233C103.104 263.8 103.731 266.432 106.277 266.432C108.694 266.432 109.26 263.758 109.26 257.249C109.26 250.558 108.573 248.589 106.219 248.589C103.866 248.589 103.104 250.708 103.104 257.233Z" fill="#333CC1"/>
<path d="M121.343 251.637C121.343 245.643 121.321 243.489 121.263 242.191H129.704C129.86 243.117 129.944 244.054 129.956 244.994C131.455 242.882 133.56 241.689 136.527 241.689C140.047 241.689 141.787 243.302 142.657 245.411C143.958 243.542 146.134 241.689 150.082 241.689C154.871 241.689 157.801 244.606 157.801 250.888V272.735H149.083V251.93C149.083 250.083 148.509 248.729 146.727 248.729C144.682 248.729 143.99 250.199 143.99 253.184V272.735H135.223V251.983C135.223 249.777 134.43 248.766 132.843 248.766C130.839 248.766 130.109 250.085 130.109 253.282V272.735H121.343V251.637Z" fill="#333CC1"/>
<path d="M169.675 259.588C169.675 263.565 170.066 266.611 172.832 266.611C175.315 266.611 175.683 264.571 175.778 263.18H184.28C184.061 265.228 183.156 273.297 172.645 273.297C162.474 273.297 160.811 265.54 160.811 257.244C160.811 246.95 164.944 241.692 172.822 241.692C181.863 241.692 184.457 247.805 184.457 256.249C184.457 257.289 184.418 258.962 184.381 259.59L169.675 259.588ZM175.717 253.963C175.717 250.993 175.583 248.233 172.809 248.233C170.035 248.233 169.749 251.136 169.749 253.963H175.717Z" fill="#333CC1"/>
<path d="M187.451 252.574C187.451 247.396 187.43 244.257 187.371 242.191H195.873C196.026 243.839 196.092 245.495 196.069 247.15C197.127 243.824 199.771 241.668 203.838 241.689V251.278C198.624 251.165 196.341 252.495 196.341 257.919V272.724H187.451V252.574Z" fill="#333CC1"/>
<path d="M207.213 233.33H217.716C223.973 233.33 228.373 237.223 228.373 244.447C228.373 251.574 224.407 255.897 217.098 255.897H212.073V272.745H207.213V233.33ZM212.068 251.862H216.563C221.144 251.862 223.439 249.46 223.439 244.395C223.439 240.119 221.207 237.395 217.034 237.395H212.068V251.862Z" fill="#FDA741"/>
<path d="M248.868 267.276C248.868 269.05 249.016 271.726 249.101 272.735H244.743C244.553 271.665 244.455 270.58 244.452 269.493C243.352 271.8 241.178 273.257 237.513 273.257C231.822 273.257 229.743 268.802 229.743 264.668C229.743 259.126 233.504 255.166 241.22 255.166C242.208 255.143 243.197 255.173 244.182 255.256V251.455C244.182 249.259 243.785 246.514 239.977 246.514C235.926 246.514 235.64 249.375 235.466 251.35H230.88C230.997 247.1 233.028 242.692 240.136 242.692C246.007 242.692 248.863 245.495 248.863 250.985L248.868 267.276ZM244.282 258.933C243.357 258.812 242.423 258.763 241.49 258.788C236.492 258.788 234.482 261.163 234.482 264.288C234.482 266.833 235.804 269.251 238.856 269.251C243.024 269.251 244.282 266.284 244.282 260.414V258.933Z" fill="#FDA741"/>
<path d="M256.103 243.172C259.097 254.987 261.482 263.692 261.863 266.928H261.921C262.524 263.375 265.052 253.535 267.707 243.172H272.604L263.968 274.197C261.54 282.952 259.044 284.008 254.86 284.008C254.117 284.014 253.375 283.946 252.644 283.807V279.632C253.302 279.736 253.967 279.785 254.633 279.779C257.637 279.779 258.504 277.826 259.615 273.313L250.894 243.172H256.103Z" fill="#FDA741"/>
<path d="M298.885 256.341C298.885 249.114 299.001 241.676 299.118 237.463H299.006C297.573 244.405 294.246 260.213 291.205 272.735H286.625C284.346 261.702 280.871 244.727 279.459 237.379H279.29C279.522 241.966 279.697 250.576 279.697 257.333V272.735H275.159V233.33H282.399C285.377 245.427 288.217 259.685 289.137 264.948H289.196C289.947 260.482 293.527 244.962 296.473 233.33H303.613V272.745H298.885V256.341Z" fill="#FDA741"/>
<path d="M312.593 258.933C312.593 264.328 313.482 269.227 318.004 269.227C322.41 269.227 322.976 265.125 323.124 264.212H327.767C327.683 265.004 326.884 273.292 317.951 273.292C309.018 273.292 307.818 265.299 307.818 257.919C307.818 248.56 311.097 242.69 318.163 242.69C326.096 242.69 328 249.093 328 256.542C328 257.196 327.974 258.263 327.915 258.949L312.593 258.933ZM323.251 255.275C323.251 250.619 322.314 246.707 318.131 246.707C313.006 246.707 312.742 253.226 312.678 255.275H323.251Z" fill="#FDA741"/>
</g>
<defs>
<clipPath id="clip0">
<rect width="328" height="284" fill="white"/>
</clipPath>
</defs>
</svg>
