<?xml version="1.0" encoding="UTF-8"?>
<svg xmlns="http://www.w3.org/2000/svg" xmlns:xlink="http://www.w3.org/1999/xlink" width="24pt" height="24pt" viewBox="0 0 24 24" version="1.1">
<g id="surface1">
<path style=" stroke:none;fill-rule:nonzero;fill:rgb(0%,0%,0%);fill-opacity:1;" d="M 12 0 C 5.382812 0 0 5.382812 0 12 C 0 18.617188 5.382812 24 12 24 C 18.617188 24 24 18.617188 24 12 C 24 5.382812 18.617188 0 12 0 Z M 12 21.816406 C 6.585938 21.816406 2.183594 17.414062 2.183594 12 C 2.183594 6.585938 6.585938 2.183594 12 2.183594 C 17.414062 2.183594 21.816406 6.585938 21.816406 12 C 21.816406 17.414062 17.414062 21.816406 12 21.816406 Z M 12 21.816406 "/>
<path style=" stroke:none;fill-rule:nonzero;fill:rgb(0%,0%,0%);fill-opacity:1;" d="M 12 5.089844 C 11.199219 5.089844 10.546875 5.742188 10.546875 6.546875 C 10.546875 7.347656 11.199219 8 12 8 C 12.800781 8 13.453125 7.347656 13.453125 6.546875 C 13.453125 5.742188 12.800781 5.089844 12 5.089844 Z M 12 5.089844 "/>
<path style=" stroke:none;fill-rule:nonzero;fill:rgb(0%,0%,0%);fill-opacity:1;" d="M 12 10.183594 C 11.398438 10.183594 10.910156 10.671875 10.910156 11.273438 L 10.910156 17.816406 C 10.910156 18.421875 11.398438 18.910156 12 18.910156 C 12.601562 18.910156 13.089844 18.421875 13.089844 17.816406 L 13.089844 11.273438 C 13.089844 10.671875 12.601562 10.183594 12 10.183594 Z M 12 10.183594 "/>
</g>
</svg>
