<svg width="133" height="136" viewBox="0 0 133 136" fill="none" xmlns="http://www.w3.org/2000/svg">
<path d="M112.146 99.1818L103.461 116.989L99.1179 115.725L77.299 134.302C76.4085 135.064 75.2688 135.433 74.1225 135.33C72.9762 135.226 71.9137 134.659 71.1612 133.748L62.8467 123.648C62.8467 123.648 79.608 116.097 82.7061 109.847C85.8042 103.597 82.2242 102.174 82.2242 102.174L90.1097 92.7993L112.146 99.1818Z" fill="#1D6AFF"/>
<path d="M100.882 62.8149C100.882 62.8149 88.1715 59.873 70.2768 41.8779C52.3822 23.8828 43.9829 -0.034878 41.8169 0.0980906C39.6509 0.231059 30.0655 -4.42838 11.8795 36.9525C-6.30643 78.3335 0.858856 87.9238 4.46533 87.8684C8.0718 87.813 32.6498 80.6272 47.9972 82.45C63.3446 84.2727 83.0716 92.6442 83.0716 92.6442L100.882 62.8149Z" fill="#1D6AFF"/>
<path d="M127.885 85.3698L123.548 93.9961L121.604 97.8744C120.321 100.427 118.151 102.368 115.541 103.296C112.93 104.223 110.079 104.068 107.576 102.861L80.3284 92.9268L96.2159 55.0308L123.437 70.2058C125.941 71.6077 127.814 73.9884 128.647 76.829C129.48 79.6696 129.206 82.7396 127.885 85.3698Z" fill="#1D6AFF"/>
<g opacity="0.4">
<path opacity="0.4" d="M127.885 85.3698L123.548 93.9961L121.604 97.8744C120.321 100.427 118.151 102.368 115.541 103.296C112.93 104.223 110.079 104.068 107.576 102.861L80.3284 92.9268L96.2159 55.0308L123.437 70.2058C125.941 71.6077 127.814 73.9884 128.647 76.829C129.48 79.6696 129.206 82.7396 127.885 85.3698Z" fill="black"/>
</g>
<path d="M13.3306 37.7061C3.65508 60.1224 -0.375062 80.101 4.32765 82.3226C9.03036 84.5443 20.6971 68.1781 30.3726 45.7563C40.0481 23.3344 44.0783 3.36699 39.3756 1.13976C34.6729 -1.08746 23.0061 15.2898 13.3306 37.7061Z" fill="#1D6AFF"/>
<g opacity="0.5">
<path opacity="0.5" d="M13.3306 37.7061C3.65508 60.1224 -0.375062 80.101 4.32765 82.3226C9.03036 84.5443 20.6971 68.1781 30.3726 45.7563C40.0481 23.3344 44.0783 3.36699 39.3756 1.13976C34.6729 -1.08746 23.0061 15.2898 13.3306 37.7061Z" fill="black"/>
</g>
<path d="M130.226 97.8356L122.838 95.4089L127.408 86.3228L132.948 89.924L130.226 97.8356Z" fill="#1D6AFF"/>
<g opacity="0.6">
<path opacity="0.6" d="M127.408 86.3228L122.838 95.4089L124.358 95.9076L128.07 86.7494L127.408 86.3228Z" fill="black"/>
</g>
<path d="M122.314 88.4168C122.208 88.6661 118.522 87.1702 114.084 85.0926C109.646 83.015 106.14 81.0869 106.241 80.8376C106.342 80.5883 110.033 82.0897 114.476 84.1895C118.919 86.2893 122.425 88.1675 122.314 88.4168Z" fill="#1D6AFF"/>
<path d="M124.591 83.0041C124.475 83.2478 121.138 81.7796 117.14 79.7186C113.142 77.6576 109.996 75.7905 110.112 75.5412C110.229 75.2919 113.56 76.7656 117.558 78.8266C121.557 80.8876 124.708 82.7547 124.591 83.0041Z" fill="#1D6AFF"/>
<path d="M119.454 94.0957C119.417 94.2287 118.538 94.0182 117.14 93.5417C116.441 93.3145 115.609 93.0265 114.693 92.6996C113.777 92.3727 112.84 91.8519 111.828 91.3699C107.787 89.4086 104.7 87.4916 104.8 87.2589C104.901 87.0262 108.222 88.5277 112.215 90.4723C113.221 90.9488 114.153 91.4696 115.032 91.8519C115.911 92.2342 116.7 92.5721 117.362 92.8824C118.686 93.5195 119.491 93.9628 119.454 94.0957Z" fill="#1D6AFF"/>
<path d="M33.0576 32.7252C33.0576 32.7252 22.0104 25.556 15.9679 41.1742C9.92532 56.7925 21.5444 59.3577 21.5444 59.3577C26.5619 51.0918 30.438 42.1257 33.0576 32.7252Z" fill="#1D6AFF"/>
<g opacity="0.5">
<path opacity="0.5" d="M44.8092 14.1096C44.878 14.1096 44.7191 15.1844 44.3802 17.0959C44.0413 19.0073 43.5329 21.7719 42.8232 25.1737L41.2874 30.642C41.0085 31.6208 40.7208 32.6347 40.4242 33.6837L39.974 35.2738C39.8099 35.8278 39.5927 36.332 39.4021 36.8694L36.9077 43.6065C36.6906 44.1938 36.4682 44.781 36.2511 45.3739C36.0339 45.9667 35.7215 46.5318 35.4726 47.1191L33.8309 50.6649L32.1839 54.2052C31.9032 54.7592 31.6543 55.3797 31.3524 55.9227C31.0505 56.4657 30.7328 57.0308 30.4309 57.5571L26.9092 63.7789C26.6232 64.2665 26.3796 64.7706 26.0619 65.236L25.1457 66.5934L23.3874 69.1863L20.2099 73.8236C18.0916 76.4996 16.3228 78.6105 15.1047 80.0787C14.5065 80.8737 13.8457 81.615 13.1294 82.2948C13.6273 81.43 14.1942 80.6108 14.8241 79.846C15.9997 78.278 17.6573 76.0841 19.6909 73.3859L22.7361 68.7154L24.4413 66.117C24.7379 65.6737 25.0345 65.2194 25.3363 64.7596C25.6382 64.2997 25.8659 63.7956 26.1572 63.3025L29.6366 57.0862L30.5421 55.4573C30.8546 54.9033 31.0717 54.3492 31.363 53.7509L32.9941 50.2327C33.5237 49.0416 34.0904 47.8726 34.6305 46.7146C34.8847 46.1606 35.1919 45.5733 35.4037 44.986L36.0657 43.2353L38.5971 36.5869C38.7931 36.0328 39.0155 35.5397 39.185 35.0078C39.3544 34.476 39.4974 33.9552 39.651 33.4344L40.5513 30.426L42.1771 25.0241L44.0148 17.046C44.1991 16.0453 44.4649 15.0629 44.8092 14.1096Z" fill="black"/>
</g>
<g opacity="0.4">
<path opacity="0.4" d="M65.4841 122.407C66.4956 124.324 67.523 126.285 69.0112 127.798C70.4993 129.31 72.5329 130.385 74.6512 130.164C76.7696 129.942 78.7026 128.136 78.7238 125.953C79.7194 126.734 81.2499 126.313 82.076 125.332C82.9022 124.352 83.1723 122.994 83.2676 121.692C84.6233 122.529 86.5086 121.87 87.4142 120.523C87.8301 119.822 88.0931 119.034 88.1846 118.214C88.2761 117.394 88.1939 116.564 87.9438 115.781C87.4278 114.223 86.6943 112.754 85.7672 111.421C86.8264 111.509 87.9173 111.587 88.8494 111.094C89.7815 110.601 90.4382 109.304 89.8715 108.373C89.4993 107.854 88.959 107.493 88.3516 107.36C86.7152 106.806 85.5713 106.396 83.866 106.601C83.4741 106.601 84.5492 111.299 73.8675 117.714C67.5283 121.51 65.4841 122.407 65.4841 122.407Z" fill="black"/>
</g>
<path d="M81.9647 111.548C81.9171 111.592 81.2763 111.049 80.4025 110.49C80.037 110.248 79.6586 110.027 79.2692 109.83C78.9673 109.686 78.766 109.648 78.7713 109.603C78.7766 109.559 78.9991 109.537 79.3327 109.642C79.7623 109.787 80.1719 109.99 80.5508 110.246C81.4458 110.817 82.0336 111.487 81.9647 111.548Z" fill="#EB996E"/>
<path d="M83.5959 109.454C82.9647 109.531 82.3251 109.455 81.7265 109.232C81.2886 109.092 80.8818 108.862 80.5296 108.556C80.2648 108.318 80.1536 108.124 80.1801 108.096C80.6895 108.441 81.235 108.723 81.8059 108.938C82.4128 109.068 83.0108 109.24 83.5959 109.454Z" fill="#EB996E"/>
</svg>
