<svg xmlns="http://www.w3.org/2000/svg" width="114.975" height="101.608" viewBox="0 0 114.975 101.608">
  <g id="Group_4" transform="translate(-0.062)">
    <path id="Path_12" d="M53.432,26.792a13.4,13.4,0,1,0-13.4-13.4A13.4,13.4,0,0,0,53.432,26.792Z"/>
    <path id="Path_13" d="M88.59,37.755,70.239,56.106l-16.7-16.7L71.887,21.055Z"/>
    <path id="Path_14" d="M53.538,39.408,37.056,55.885l16.7,16.7L70.238,56.112Z"/>
    <path id="Path_15" d="M35.48,21.346,19,37.825l18.06,18.06,16.48-16.48Z"/>
    <path id="Path_16" d="M10.016,88.748a3.172,3.172,0,0,1,2.466,1.008,3.81,3.81,0,0,1,.936,2.7V98H11.1V92.618a1.844,1.844,0,0,0-.4-1.26,1.408,1.408,0,0,0-1.116-.45,1.553,1.553,0,0,0-1.242.522,2.317,2.317,0,0,0-.432,1.512V98H5.588V92.618a1.844,1.844,0,0,0-.4-1.26,1.408,1.408,0,0,0-1.116-.45,1.587,1.587,0,0,0-1.242.522,2.252,2.252,0,0,0-.45,1.512V98H.062V89H2.384v.954a2.8,2.8,0,0,1,2.5-1.206,2.668,2.668,0,0,1,2.448,1.3A3.051,3.051,0,0,1,10.016,88.748ZM21.6,89h2.484l-3.276,9a5.835,5.835,0,0,1-1.872,2.808,4.219,4.219,0,0,1-2.88.792V99.44a2.3,2.3,0,0,0,1.476-.4,2.734,2.734,0,0,0,.882-1.332L14.729,89h2.538l2.34,6.048Zm10.213,9.252a6.3,6.3,0,0,1-4.7-1.89,6.788,6.788,0,0,1,0-9.324,6.685,6.685,0,0,1,7.848-1.08,5.784,5.784,0,0,1,2.268,2.16L35.094,89.36a3.267,3.267,0,0,0-1.332-1.314,3.9,3.9,0,0,0-1.944-.486,3.982,3.982,0,0,0-2.97,1.152,4.534,4.534,0,0,0,0,5.958,4.354,4.354,0,0,0,4.914.684,3.268,3.268,0,0,0,1.332-1.314l2.142,1.242a5.948,5.948,0,0,1-2.25,2.178A6.465,6.465,0,0,1,31.818,98.252ZM45.274,89H47.6v9H45.274V96.992a3,3,0,0,1-2.682,1.26,3.288,3.288,0,0,1-2.448-.99,3.779,3.779,0,0,1-.954-2.736V89h2.322v5.238A1.875,1.875,0,0,0,42,95.624a1.79,1.79,0,0,0,1.3.468,1.912,1.912,0,0,0,1.44-.558,2.321,2.321,0,0,0,.54-1.674Zm7.06,2.556q0,.36.468.594a7.79,7.79,0,0,0,1.17.4,10,10,0,0,1,1.368.432,2.534,2.534,0,0,1,1.152.864,2.383,2.383,0,0,1,.486,1.53,2.488,2.488,0,0,1-1.044,2.142,4.3,4.3,0,0,1-2.574.738,3.786,3.786,0,0,1-3.78-2.142L51.6,94.976a1.669,1.669,0,0,0,1.764,1.17q1.242,0,1.242-.774,0-.36-.486-.576a6.03,6.03,0,0,0-1.152-.414,12.139,12.139,0,0,1-1.368-.45,2.909,2.909,0,0,1-1.17-.846,2.311,2.311,0,0,1-.468-1.476,2.5,2.5,0,0,1,.972-2.088,3.853,3.853,0,0,1,2.448-.774,4.019,4.019,0,0,1,2,.5,3.556,3.556,0,0,1,1.422,1.4l-1.98,1.08a1.481,1.481,0,0,0-1.44-.918,1.364,1.364,0,0,0-.756.2A.622.622,0,0,0,52.335,91.556ZM63.9,91.232H61.862v3.744a.89.89,0,0,0,.234.684,1.112,1.112,0,0,0,.684.252q.45.018,1.116-.018V98a4.981,4.981,0,0,1-3.384-.45,3.01,3.01,0,0,1-.972-2.574V91.232H57.974V89H59.54V87.182l2.322-.7V89H63.9Zm9.564,5.652A4.752,4.752,0,0,1,65.324,93.5a4.761,4.761,0,1,1,8.136,3.384Zm-5.13-1.6a2.522,2.522,0,0,0,3.492,0,2.613,2.613,0,0,0,0-3.564,2.522,2.522,0,0,0-3.492,0,2.663,2.663,0,0,0,0,3.564Zm18.644-6.534a3.172,3.172,0,0,1,2.466,1.008,3.81,3.81,0,0,1,.936,2.7V98H88.054V92.618a1.844,1.844,0,0,0-.4-1.26,1.408,1.408,0,0,0-1.116-.45,1.553,1.553,0,0,0-1.242.522,2.317,2.317,0,0,0-.432,1.512V98H82.546V92.618a1.844,1.844,0,0,0-.4-1.26,1.408,1.408,0,0,0-1.116-.45,1.587,1.587,0,0,0-1.242.522,2.252,2.252,0,0,0-.45,1.512V98H77.02V89h2.322v.954a2.8,2.8,0,0,1,2.5-1.206,2.668,2.668,0,0,1,2.448,1.3A3.051,3.051,0,0,1,86.974,88.748Zm7.876,5.706a2.306,2.306,0,0,0,2.538,1.692,2.375,2.375,0,0,0,2.016-.9l1.872,1.08a4.464,4.464,0,0,1-3.924,1.926A4.842,4.842,0,0,1,93.77,96.9a4.963,4.963,0,0,1-.018-6.786,4.565,4.565,0,0,1,3.42-1.368,4.263,4.263,0,0,1,3.258,1.368,4.732,4.732,0,0,1,1.3,3.384,5.436,5.436,0,0,1-.09.954Zm-.036-1.8H99.4a2.16,2.16,0,0,0-.828-1.368,2.308,2.308,0,0,0-1.4-.45,2.412,2.412,0,0,0-1.548.486A2.239,2.239,0,0,0,94.814,92.654Zm11.4-2.106a2.436,2.436,0,0,1,1.062-1.3,3.314,3.314,0,0,1,1.674-.432v2.592a2.766,2.766,0,0,0-1.908.432,2.071,2.071,0,0,0-.828,1.854V98h-2.322V89h2.322Zm8.228,7.164a2.028,2.028,0,1,1,.6-1.44A1.964,1.964,0,0,1,114.437,97.712Z"/>
  </g>
</svg>
