<?xml version="1.0" encoding="utf-8"?>
<!-- Generator: Adobe Illustrator 23.0.3, SVG Export Plug-In . SVG Version: 6.00 Build 0)  -->
<svg version="1.1" id="Layer_1" xmlns="http://www.w3.org/2000/svg" xmlns:xlink="http://www.w3.org/1999/xlink" x="0px" y="0px"
	 viewBox="0 0 21.85 22.74" enable-background="new 0 0 21.85 22.74" xml:space="preserve">
<title>no_notification</title>
<g>
	<g id="Layer_1-2">
		<path d="M10.92,3.24c-5.38,0-9.75,4.37-9.75,9.75s4.37,9.75,9.75,9.75c5.38,0,9.74-4.36,9.75-9.74
			C20.67,7.61,16.31,3.25,10.92,3.24z M16.76,18.83c-3.22,3.24-8.46,3.25-11.7,0.02S1.82,10.4,5.04,7.16s8.46-3.25,11.7-0.02
			c1.56,1.55,2.44,3.66,2.43,5.87c0.01,1.08-0.2,2.16-0.62,3.16C18.13,17.16,17.52,18.06,16.76,18.83z"/>
		<path d="M11.67,7h-1.5v6.36l4,3.23l0.93-1.17l-3.47-2.78L11.67,7z"/>
		<path d="M0,4.87L7.12,0L8,1.24L0.85,6.11L0,4.87z"/>
		<path d="M13.88,1.24L14.72,0l7.13,4.88L21,6.11L13.88,1.24z"/>
	</g>
</g>
</svg>
