<svg xmlns="http://www.w3.org/2000/svg" width="16.333" height="21" viewBox="0 0 16.333 21">
  <g id="Group_1" data-name="Group 1" transform="translate(-0.834 -0.5)">
    <path id="Path_1" data-name="Path 1" d="M9,9.833a4.667,4.667,0,1,1,3.3-1.367A4.667,4.667,0,0,1,9,9.833Zm0-7a2.333,2.333,0,1,0,1.65.683A2.333,2.333,0,0,0,9,2.833Z"/>
    <path id="Path_2" data-name="Path 2" d="M9,12.167a8.167,8.167,0,0,1,8.167,8.167,1.167,1.167,0,0,1-2.333,0,5.833,5.833,0,1,0-11.667,0,1.167,1.167,0,0,1-2.333,0A8.167,8.167,0,0,1,9,12.167Z"/>
  </g>
</svg>
