<svg id="Group_3" data-name="Group 3" xmlns="http://www.w3.org/2000/svg" width="20" height="20" viewBox="0 0 20 20">
  <path id="Path_7" data-name="Path 7" d="M10.94,20H9.05a1.68,1.68,0,0,1-1.68-1.68V17.23a.34.34,0,0,0-.22-.29.38.38,0,0,0-.41,0l-.74.8a1.67,1.67,0,0,1-2.37,0L2.26,16.4a1.66,1.66,0,0,1-.5-1.19A1.72,1.72,0,0,1,2.26,14L3,13.26a.34.34,0,0,0,0-.37c-.06-.15-.16-.26-.3-.26H1.68A1.69,1.69,0,0,1,0,10.94V9.05A1.68,1.68,0,0,1,1.68,7.37H2.77a.34.34,0,0,0,.29-.22.38.38,0,0,0,0-.41L2.26,6a1.67,1.67,0,0,1,0-2.37L3.6,2.26a1.65,1.65,0,0,1,1.18-.5A1.72,1.72,0,0,1,6,2.26L6.74,3a.34.34,0,0,0,.37,0c.15-.06.26-.16.26-.3V1.68A1.69,1.69,0,0,1,9.06,0H11a1.68,1.68,0,0,1,1.68,1.68V2.77a.34.34,0,0,0,.22.29.38.38,0,0,0,.41,0l.69-.8a1.67,1.67,0,0,1,2.37,0L17.74,3.6a1.67,1.67,0,0,1,.5,1.19A1.63,1.63,0,0,1,17.74,6L17,6.74a.34.34,0,0,0,0,.37c.06.15.16.26.3.26h1.09A1.69,1.69,0,0,1,20,9.06V11a1.68,1.68,0,0,1-1.68,1.68H17.23a.393.393,0,0,0-.29.59l.77.77a1.67,1.67,0,0,1,0,2.37L16.4,17.74a1.651,1.651,0,0,1-1.18.5,1.72,1.72,0,0,1-1.19-.5L13.26,17a.34.34,0,0,0-.37,0c-.15.06-.26.16-.26.3v1.09A1.69,1.69,0,0,1,10.94,20ZM9.37,18h1.26v-.77a2.33,2.33,0,0,1,1.46-2.14,2.36,2.36,0,0,1,2.59.47l.54.54.88-.88-.54-.55a2.36,2.36,0,0,1,1.66-4.01H18V9.37h-.77a2.33,2.33,0,0,1-2.14-1.46,2.36,2.36,0,0,1,.47-2.59l.54-.54-.88-.88-.55.54a2.39,2.39,0,0,1-4-1.67V2H9.37v.77A2.33,2.33,0,0,1,7.91,4.91a2.36,2.36,0,0,1-2.59-.47L4.78,3.9l-.88.88.54.55a2.39,2.39,0,0,1-1.67,4H2v1.26h.77a2.33,2.33,0,0,1,2.14,1.46,2.36,2.36,0,0,1-.47,2.59l-.54.54.88.88.55-.54a2.39,2.39,0,0,1,4,1.67Z"/>
  <path id="Path_8" data-name="Path 8" d="M10,13.5a3.5,3.5,0,1,1,2.475-1.025A3.5,3.5,0,0,1,10,13.5Zm0-5a1.5,1.5,0,1,0,1.061.439A1.5,1.5,0,0,0,10,8.5Z"/>
</svg>
