<svg xmlns="http://www.w3.org/2000/svg" width="23" height="25" viewBox="0 0 23 25">
  <path id="Path_1" data-name="Path 1" d="M19.167,17.347a3.82,3.82,0,0,0-2.409.851l-6.619-4.78a5.117,5.117,0,0,0,0-1.837L16.758,6.8a3.824,3.824,0,1,0-1.425-2.975,3.756,3.756,0,0,0,.15,1.062L9.2,9.432a5.1,5.1,0,1,0,0,6.135l6.287,4.544a3.772,3.772,0,0,0-.15,1.062,3.833,3.833,0,1,0,3.833-3.827Zm0-15.179a1.658,1.658,0,1,1-1.661,1.658A1.66,1.66,0,0,1,19.167,2.168ZM5.111,15.306A2.806,2.806,0,1,1,7.922,12.5,2.813,2.813,0,0,1,5.111,15.306Zm14.056,7.526a1.658,1.658,0,1,1,1.661-1.658A1.66,1.66,0,0,1,19.167,22.832Z"/>
</svg>
