<svg id="Group_2" data-name="Group 2" xmlns="http://www.w3.org/2000/svg" width="20" height="20" viewBox="0 0 20 20">
  <path id="Path_4" data-name="Path 4" d="M10,0a10,10,0,1,0,3.827.761A10,10,0,0,0,10,0Zm0,18a8,8,0,1,1,5.657-2.343A8,8,0,0,1,10,18Z"/>
  <path id="Path_5" data-name="Path 5" d="M10,4A3.5,3.5,0,0,0,6.5,7.5a1,1,0,0,0,2,0A1.5,1.5,0,1,1,10,9a1,1,0,0,0-1,1v2a1,1,0,0,0,2,0V10.84A3.49,3.49,0,0,0,10,4Z"/>
  <path id="Path_6" data-name="Path 6" d="M10,16a1,1,0,1,0-1-1A1,1,0,0,0,10,16Z"/>
</svg>
