<svg width="170" height="170" viewBox="0 0 170 170" fill="none" xmlns="http://www.w3.org/2000/svg">
<path d="M161.119 157.032C161.119 157.08 129.605 157.121 90.7393 157.121C51.8739 157.121 20.3593 157.08 20.3593 157.032C20.3593 156.985 51.8705 156.944 90.7393 156.944C129.608 156.944 161.119 156.985 161.119 157.032Z" fill="#263238"/>
<path d="M131.937 143.847C131.335 144.707 130.162 144.422 129.622 143.898C129.081 143.375 128.85 142.61 128.639 141.885C128.163 140.226 127.684 138.485 128.037 136.785C128.123 136.274 128.348 135.797 128.687 135.405C128.858 135.212 129.078 135.067 129.323 134.985C129.568 134.904 129.831 134.888 130.084 134.939C130.676 135.096 131.043 135.674 131.308 136.221C132.088 137.845 132.496 139.622 132.505 141.423C132.562 142.265 132.364 143.105 131.937 143.834" fill="#333CC1"/>
<path opacity="0.2" d="M131.937 143.847C131.335 144.707 130.162 144.422 129.622 143.898C129.081 143.375 128.85 142.61 128.639 141.885C128.163 140.226 127.684 138.485 128.037 136.785C128.123 136.274 128.348 135.797 128.687 135.405C128.858 135.212 129.078 135.067 129.323 134.985C129.568 134.904 129.831 134.888 130.084 134.939C130.676 135.096 131.043 135.674 131.308 136.221C132.088 137.845 132.496 139.622 132.505 141.423C132.562 142.265 132.364 143.105 131.937 143.834" fill="black"/>
<path d="M129.679 148.203C128.67 147.73 127.536 147.591 126.443 147.808C125.845 147.863 125.282 148.114 124.841 148.522C124.443 148.964 124.369 149.739 124.841 150.12C125.141 150.322 125.502 150.413 125.861 150.375C126.718 150.375 127.667 150.215 128.35 150.715C128.741 151.011 129.003 151.497 129.469 151.643C129.702 151.697 129.947 151.673 130.166 151.576C130.385 151.478 130.566 151.312 130.682 151.103C130.904 150.674 130.953 150.176 130.818 149.712C130.758 149.39 130.624 149.086 130.426 148.824C130.228 148.562 129.973 148.349 129.679 148.203Z" fill="#333CC1"/>
<path d="M133.589 145.081C133.28 144.677 133.074 144.204 132.99 143.702C132.905 143.2 132.944 142.685 133.103 142.202C133.433 141.236 134.021 140.38 134.803 139.726C135.696 138.932 136.735 138.32 137.863 137.924C138.294 137.75 138.758 137.67 139.223 137.69C139.456 137.701 139.682 137.769 139.883 137.888C140.084 138.006 140.253 138.172 140.376 138.37C140.699 138.985 140.376 139.73 140.056 140.335C139.468 141.405 138.797 142.429 138.05 143.395C137.448 144.17 136.762 144.932 135.844 145.285C134.926 145.639 133.974 145.591 133.491 144.945" fill="#333CC1"/>
<path d="M131.978 156.822C131.944 156.694 131.926 156.563 131.923 156.431C131.896 156.145 131.859 155.788 131.818 155.363C131.766 154.838 131.686 154.316 131.58 153.799C131.439 153.169 131.248 152.552 131.009 151.953C130.776 151.354 130.459 150.792 130.067 150.283C129.748 149.869 129.342 149.53 128.877 149.291C128.556 149.133 128.211 149.028 127.857 148.978C127.736 148.97 127.617 148.951 127.5 148.92C127.631 148.904 127.763 148.904 127.894 148.92C128.257 148.948 128.611 149.04 128.942 149.192C129.432 149.424 129.863 149.766 130.2 150.192C130.608 150.707 130.936 151.28 131.175 151.892C131.419 152.5 131.609 153.128 131.743 153.768C131.842 154.292 131.911 154.821 131.951 155.353C131.985 155.805 131.995 156.172 132.002 156.427C132.008 156.559 132 156.691 131.978 156.822Z" fill="#263238"/>
<path d="M131.92 156.002C131.916 155.941 131.916 155.88 131.92 155.819C131.92 155.683 131.92 155.513 131.92 155.302C131.92 154.85 131.92 154.2 131.896 153.394C131.855 151.786 131.716 149.566 131.451 147.125C131.186 144.684 130.822 142.487 130.499 140.913C130.421 140.519 130.342 140.162 130.271 139.852C130.2 139.543 130.142 139.271 130.084 139.053C130.026 138.836 129.996 138.683 129.962 138.55C129.944 138.491 129.934 138.431 129.931 138.37C129.959 138.424 129.979 138.481 129.992 138.54L130.145 139.036C130.21 139.254 130.281 139.519 130.356 139.832C130.431 140.145 130.526 140.512 130.608 140.889C131.042 142.943 131.367 145.019 131.58 147.108C131.849 149.552 131.968 151.779 131.978 153.394C131.978 154.2 131.978 154.853 131.951 155.302C131.937 155.513 131.927 155.686 131.92 155.822C131.927 155.882 131.927 155.942 131.92 156.002Z" fill="#263238"/>
<path d="M131.893 151.705C131.879 151.525 131.879 151.344 131.893 151.164C131.913 150.824 131.961 150.314 132.059 149.695C132.177 148.974 132.336 148.26 132.535 147.557C132.774 146.694 133.073 145.848 133.429 145.027C134.051 143.519 134.942 142.137 136.058 140.947C136.25 140.743 136.456 140.551 136.673 140.372C136.768 140.291 136.853 140.213 136.938 140.148L137.176 139.981C137.322 139.873 137.475 139.775 137.635 139.689C137.11 140.104 136.61 140.55 136.139 141.025C135.059 142.229 134.193 143.609 133.579 145.105C133.224 145.92 132.923 146.757 132.678 147.611C132.443 148.396 132.29 149.121 132.171 149.729C132.052 150.338 131.995 150.838 131.957 151.181C131.948 151.357 131.926 151.532 131.893 151.705Z" fill="#263238"/>
<path d="M132.457 126.885L58.9016 117.531L71.7128 16.779L147.098 26.367C147.493 26.4171 147.852 26.6221 148.097 26.9371C148.341 27.2521 148.45 27.6512 148.4 28.0466L136.197 123.988C136.142 124.424 136.002 124.845 135.784 125.226C135.566 125.608 135.275 125.943 134.928 126.212C134.581 126.481 134.183 126.679 133.76 126.794C133.336 126.91 132.893 126.94 132.457 126.885Z" fill="#455A64"/>
<path d="M142.237 43.2529L141.614 48.1536L150.734 49.3138L151.357 44.4132L142.237 43.2529Z" fill="#333CC1"/>
<path opacity="0.3" d="M142.237 43.2529L141.614 48.1536L150.734 49.3138L151.357 44.4132L142.237 43.2529Z" fill="black"/>
<path d="M145.669 28.9575L74.536 19.9083L62.3477 115.717L133.48 124.766L145.669 28.9575Z" fill="#E0E0E0"/>
<path d="M142.648 27.3817L71.5154 18.3324L59.327 114.141L130.46 123.19L142.648 27.3817Z" fill="#FAFAFA"/>
<path d="M72.622 27.6454L72.5791 27.9827L143.462 37.0002L143.505 36.6629L72.622 27.6454Z" fill="#E0E0E0"/>
<path d="M72.4614 32.4681L72.4185 32.8054L143.302 41.8229L143.344 41.4856L72.4614 32.4681Z" fill="#E0E0E0"/>
<path d="M71.8572 37.2299L71.8143 37.5671L142.697 46.5846L142.74 46.2473L71.8572 37.2299Z" fill="#E0E0E0"/>
<path d="M71.6373 42.2503L71.5931 42.5869L142.333 51.876L142.377 51.5394L71.6373 42.2503Z" fill="#E0E0E0"/>
<path d="M71.0181 47.0319L70.9739 47.3685L141.714 56.6576L141.758 56.321L71.0181 47.0319Z" fill="#E0E0E0"/>
<path d="M70.3987 51.8101L70.3545 52.1467L141.094 61.4358L141.139 61.0992L70.3987 51.8101Z" fill="#E0E0E0"/>
<path d="M69.7827 56.5917L69.7385 56.9283L140.478 66.2174L140.523 65.8808L69.7827 56.5917Z" fill="#E0E0E0"/>
<path d="M68.8264 61.0499L68.7834 61.3872L139.667 70.4047L139.709 70.0674L68.8264 61.0499Z" fill="#E0E0E0"/>
<path d="M68.2222 65.815L68.1793 66.1523L139.062 75.1698L139.105 74.8325L68.2222 65.815Z" fill="#E0E0E0"/>
<path d="M67.9313 70.9369L67.8871 71.2735L138.627 80.5626L138.671 80.226L67.9313 70.9369Z" fill="#E0E0E0"/>
<path d="M67.3119 75.7151L67.2677 76.0517L138.008 85.3407L138.052 85.0041L67.3119 75.7151Z" fill="#E0E0E0"/>
<path d="M66.6925 80.4967L66.6483 80.8333L137.388 90.1224L137.432 89.7858L66.6925 80.4967Z" fill="#E0E0E0"/>
<path d="M66.0763 85.2817L66.0321 85.6183L136.772 94.9073L136.816 94.5707L66.0763 85.2817Z" fill="#E0E0E0"/>
<path d="M64.841 94.8419L64.7968 95.1785L135.537 104.468L135.581 104.131L64.841 94.8419Z" fill="#E0E0E0"/>
<path d="M64.2251 99.6234L64.1809 99.96L134.921 109.249L134.965 108.913L64.2251 99.6234Z" fill="#E0E0E0"/>
<path d="M63.6058 104.402L63.5616 104.738L134.302 114.027L134.346 113.691L63.6058 104.402Z" fill="#E0E0E0"/>
<path d="M62.7679 108.694L62.725 109.032L133.608 118.049L133.651 117.712L62.7679 108.694Z" fill="#E0E0E0"/>
<path d="M82.6652 20.2566L70.4523 115.726L70.7895 115.769L83.0025 20.2997L82.6652 20.2566Z" fill="#333CC1"/>
<path d="M77.7104 24.242C77.6738 24.5281 77.5533 24.7969 77.3641 25.0144C77.1749 25.232 76.9254 25.3886 76.6472 25.4645C76.3689 25.5403 76.0745 25.532 75.801 25.4405C75.5275 25.3491 75.2873 25.1786 75.1106 24.9507C74.934 24.7228 74.8289 24.4476 74.8086 24.16C74.7882 23.8723 74.8537 23.5851 74.9965 23.3346C75.1394 23.0841 75.3533 22.8816 75.6112 22.7526C75.8691 22.6237 76.1595 22.574 76.4456 22.61C76.6359 22.634 76.8196 22.6952 76.9861 22.7902C77.1527 22.8852 77.299 23.0121 77.4164 23.1637C77.5339 23.3153 77.6203 23.4886 77.6708 23.6736C77.7212 23.8586 77.7347 24.0518 77.7104 24.242Z" fill="#455A64"/>
<path d="M76.3571 34.8704C76.3211 35.1568 76.201 35.4261 76.0118 35.6442C75.8227 35.8623 75.5732 36.0193 75.2947 36.0955C75.0163 36.1716 74.7215 36.1635 74.4478 36.072C74.174 35.9805 73.9335 35.8099 73.7567 35.5817C73.58 35.3535 73.4749 35.078 73.4548 34.79C73.4347 34.5021 73.5006 34.2146 73.6439 33.9641C73.7873 33.7136 74.0018 33.5112 74.2602 33.3826C74.5186 33.2541 74.8094 33.2051 75.0957 33.2418C75.4783 33.2919 75.8257 33.4912 76.062 33.7962C76.2982 34.1013 76.4043 34.4875 76.3571 34.8704Z" fill="#455A64"/>
<path d="M75.004 45.5022C74.9668 45.7873 74.846 46.0551 74.6568 46.2716C74.4676 46.4881 74.2185 46.6437 73.941 46.7188C73.6634 46.7939 73.3699 46.785 73.0973 46.6934C72.8248 46.6018 72.5855 46.4315 72.4097 46.204C72.2338 45.9765 72.1293 45.702 72.1094 45.4152C72.0894 45.1283 72.1548 44.842 72.2974 44.5923C72.44 44.3426 72.6534 44.1408 72.9106 44.0123C73.1678 43.8838 73.4573 43.8343 73.7426 43.8702C73.9328 43.8941 74.1163 43.9554 74.2828 44.0504C74.4492 44.1455 74.5952 44.2725 74.7124 44.4241C74.8296 44.5758 74.9157 44.7491 74.9657 44.9341C75.0158 45.1191 75.0288 45.3122 75.004 45.5022Z" fill="#455A64"/>
<path d="M73.6542 56.1306C73.6183 56.4169 73.4983 56.6861 73.3094 56.9042C73.1204 57.1223 72.8711 57.2794 72.5928 57.3558C72.3146 57.4321 72.02 57.4242 71.7462 57.3331C71.4725 57.242 71.2319 57.0717 71.0549 56.8438C70.8779 56.6159 70.7725 56.3407 70.752 56.0529C70.7315 55.7651 70.7968 55.4777 70.9396 55.227C71.0825 54.9763 71.2964 54.7736 71.5545 54.6446C71.8126 54.5155 72.1031 54.4659 72.3894 54.502C72.7726 54.5512 73.1208 54.7502 73.3578 55.0553C73.5948 55.3605 73.7013 55.7471 73.6542 56.1306Z" fill="#455A64"/>
<path d="M72.3011 66.7624C72.2651 67.0488 72.1449 67.3181 71.9558 67.5362C71.7667 67.7542 71.5171 67.9113 71.2387 67.9875C70.9603 68.0636 70.6655 68.0554 70.3917 67.964C70.1179 67.8725 69.8775 67.7019 69.7007 67.4737C69.524 67.2455 69.4189 66.97 69.3988 66.682C69.3787 66.3941 69.4445 66.1066 69.5879 65.8561C69.7313 65.6056 69.9457 65.4032 70.2042 65.2746C70.4626 65.146 70.7534 65.097 71.0397 65.1338C71.2295 65.1578 71.4128 65.2189 71.579 65.3137C71.7451 65.4086 71.891 65.5352 72.0081 65.6865C72.1253 65.8378 72.2115 66.0107 72.2618 66.1953C72.312 66.3799 72.3254 66.5726 72.3011 66.7624Z" fill="#455A64"/>
<path d="M70.9479 77.3942C70.9107 77.6793 70.7899 77.947 70.6007 78.1635C70.4115 78.3801 70.1624 78.5357 69.8848 78.6108C69.6073 78.6858 69.3137 78.677 69.0412 78.5854C68.7686 78.4938 68.5293 78.3234 68.3535 78.0959C68.1777 77.8684 68.0732 77.594 68.0532 77.3071C68.0332 77.0203 68.0987 76.734 68.2413 76.4843C68.3839 76.2346 68.5972 76.0328 68.8545 75.9043C69.1117 75.7758 69.4012 75.7263 69.6865 75.7622C69.8766 75.7861 70.0602 75.8474 70.2266 75.9424C70.393 76.0375 70.539 76.1645 70.6563 76.3161C70.7735 76.4678 70.8596 76.6411 70.9096 76.8261C70.9596 77.0111 70.9726 77.2042 70.9479 77.3942Z" fill="#455A64"/>
<path d="M69.5979 88.0226C69.5618 88.3091 69.4415 88.5785 69.2522 88.7965C69.0628 89.0146 68.813 89.1716 68.5344 89.2475C68.2558 89.3235 67.9609 89.315 67.6871 89.2233C67.4133 89.1315 67.1729 88.9605 66.9964 88.732C66.8199 88.5034 66.7152 88.2276 66.6955 87.9395C66.6759 87.6514 66.7422 87.364 66.8861 87.1136C67.03 86.8632 67.2449 86.6612 67.5037 86.5331C67.7626 86.405 68.0536 86.3566 68.3399 86.394C68.7223 86.444 69.0693 86.6435 69.3051 86.9487C69.5408 87.2539 69.6461 87.64 69.5979 88.0226Z" fill="#455A64"/>
<path d="M68.2447 98.6544C68.2081 98.9405 68.0874 99.2094 67.898 99.427C67.7086 99.6446 67.4588 99.8011 67.1805 99.8767C66.9021 99.9524 66.6075 99.9438 66.334 99.852C66.0605 99.7602 65.8203 99.5894 65.6439 99.3611C65.4675 99.1329 65.3627 98.8574 65.3428 98.5696C65.3229 98.2818 65.3889 97.9946 65.5322 97.7443C65.6756 97.4939 65.89 97.2917 66.1483 97.1632C66.4066 97.0347 66.6972 96.9857 66.9833 97.0224C67.1735 97.0463 67.3571 97.1076 67.5235 97.2026C67.6899 97.2977 67.8359 97.4247 67.9531 97.5763C68.0703 97.728 68.1564 97.9012 68.2065 98.0863C68.2565 98.2713 68.2695 98.4643 68.2447 98.6544Z" fill="#455A64"/>
<path d="M66.895 109.283C66.8591 109.569 66.7391 109.838 66.5502 110.056C66.3613 110.274 66.1119 110.432 65.8337 110.508C65.5555 110.584 65.2608 110.576 64.9871 110.485C64.7133 110.394 64.4727 110.224 64.2957 109.996C64.1188 109.768 64.0134 109.493 63.9928 109.205C63.9723 108.917 64.0376 108.63 64.1805 108.379C64.3233 108.128 64.5373 107.926 64.7954 107.797C65.0534 107.668 65.3439 107.618 65.6302 107.654C66.0135 107.703 66.3616 107.902 66.5986 108.208C66.8356 108.513 66.9422 108.899 66.895 109.283Z" fill="#455A64"/>
<path d="M70.4888 28.4614C70.4888 28.4784 70.431 28.4784 70.329 28.4614C70.1794 28.4371 70.0325 28.3984 69.8904 28.3458C69.6633 28.2563 69.4467 28.1423 69.2444 28.0058C68.9746 27.8217 68.734 27.5982 68.5304 27.3428C68.2879 27.0282 68.0994 26.6755 67.9728 26.299C67.8289 25.8681 67.7543 25.4171 67.7518 24.9628C67.7325 24.4457 67.8374 23.9316 68.0578 23.4634C68.3168 22.9706 68.6956 22.5508 69.1594 22.2428C69.6139 21.9369 70.1286 21.7317 70.669 21.641C71.1654 21.5594 71.6719 21.5594 72.1684 21.641C72.9921 21.7858 73.7776 22.097 74.477 22.5556C74.9402 22.8522 75.373 23.1939 75.769 23.5756C76.0444 23.8476 76.177 24.0176 76.1532 24.0448C76.1294 24.072 75.9492 23.9564 75.6364 23.7354C75.1989 23.4233 74.7449 23.135 74.2764 22.8718C73.6005 22.4879 72.8592 22.2331 72.0902 22.1204C71.6461 22.06 71.1953 22.0692 70.754 22.1476C70.2867 22.2319 69.842 22.4125 69.4484 22.678C69.0581 22.9376 68.7362 23.2875 68.51 23.698C68.3232 24.092 68.229 24.5235 68.2346 24.9594C68.2276 25.3648 68.2792 25.769 68.3876 26.1596C68.4834 26.4989 68.6313 26.8212 68.8262 27.115C68.9932 27.3562 69.1922 27.5735 69.4178 27.761C69.5909 27.9051 69.7763 28.0336 69.972 28.1452C70.1318 28.2404 70.2678 28.2914 70.3562 28.3458C70.4446 28.4002 70.4956 28.4444 70.4888 28.4614Z" fill="#333CC1"/>
<path d="M69.1391 39.1C69.1391 39.1204 69.0779 39.1 68.9759 39.1C68.8263 39.0738 68.6795 39.0339 68.5373 38.981C68.3104 38.8935 68.0947 38.7794 67.8947 38.641C67.6227 38.461 67.3816 38.2382 67.1807 37.9814C66.9357 37.6685 66.747 37.3153 66.6231 36.9376C66.4793 36.5055 66.4047 36.0534 66.4021 35.598C66.3801 35.0811 66.4839 34.5666 66.7047 34.0986C66.9658 33.6082 67.3442 33.19 67.8063 32.8814C68.2615 32.5738 68.7775 32.3674 69.3193 32.2762C69.8157 32.1945 70.3222 32.1945 70.8187 32.2762C71.6417 32.4195 72.4265 32.7308 73.1239 33.1908C73.5871 33.4874 74.0198 33.8291 74.4159 34.2108C74.6947 34.4828 74.8273 34.6528 74.8035 34.68C74.7797 34.7072 74.5995 34.5882 74.2833 34.3706C73.8468 34.0571 73.3927 33.7687 72.9233 33.507C72.2474 33.1225 71.5062 32.8665 70.7371 32.7522C70.2918 32.6918 69.8399 32.701 69.3975 32.7794C68.9339 32.868 68.4939 33.0521 68.1055 33.32C67.7152 33.5796 67.3933 33.9295 67.1671 34.34C66.9794 34.7337 66.8851 35.1654 66.8917 35.6014C66.8822 36.0078 66.9326 36.4133 67.0413 36.805C67.1365 37.1451 67.2858 37.4676 67.4833 37.7604C67.6473 38.0019 67.8454 38.2183 68.0715 38.403C68.2442 38.5475 68.4297 38.6761 68.6257 38.7872C68.7855 38.8858 68.9249 38.9368 69.0099 38.9912C69.0949 39.0456 69.1425 39.0728 69.1391 39.1Z" fill="#333CC1"/>
<path d="M67.7858 49.7216C67.7858 49.7216 67.7246 49.7216 67.6226 49.7216C67.4742 49.6968 67.3285 49.6581 67.1874 49.606C66.6526 49.4041 66.1826 49.061 65.8274 48.6132C65.5831 48.2985 65.3945 47.9444 65.2698 47.566C65.1259 47.1351 65.0513 46.6841 65.0488 46.2298C65.0295 45.7127 65.1344 45.1986 65.3548 44.7304C65.6117 44.2381 65.9896 43.8193 66.453 43.5132C66.9088 43.2067 67.4245 43.0005 67.966 42.908C68.4624 42.8264 68.9689 42.8264 69.4654 42.908C70.2897 43.0523 71.0756 43.3648 71.774 43.826C72.2362 44.1225 72.6679 44.4642 73.0626 44.846C73.3414 45.1146 73.474 45.2846 73.4502 45.3118C73.4264 45.339 73.2462 45.2234 72.9334 45.0024C72.4952 44.6924 72.0412 44.4053 71.5734 44.1422C70.8984 43.7557 70.1568 43.4996 69.3872 43.3874C68.9431 43.327 68.4922 43.3361 68.051 43.4146C67.5837 43.4989 67.139 43.6795 66.7454 43.945C66.3551 44.2046 66.0332 44.5545 65.807 44.965C65.6202 45.359 65.526 45.7905 65.5316 46.2264C65.5213 46.6319 65.5729 47.0366 65.6846 47.4266C65.7787 47.7665 65.9268 48.089 66.1232 48.382C66.2891 48.6229 66.487 48.8403 66.7114 49.028C66.8856 49.1705 67.071 49.299 67.2656 49.4122C67.4288 49.5074 67.5648 49.5618 67.6498 49.6162C67.7348 49.6706 67.7926 49.7046 67.7858 49.7216Z" fill="#333CC1"/>
<path d="M66.4326 60.3534C66.4326 60.3704 66.3748 60.3704 66.2728 60.3534C66.1232 60.3276 65.9764 60.2878 65.8342 60.2344C65.6067 60.1483 65.3908 60.0341 65.1916 59.8944C64.9193 59.7136 64.6772 59.491 64.4742 59.2348C64.2317 58.9202 64.0433 58.5675 63.9166 58.191C63.7758 57.7582 63.7013 57.3065 63.6956 56.8514C63.6768 56.3344 63.7818 55.8203 64.0016 55.352C64.2627 54.8616 64.6412 54.4434 65.1032 54.1348C65.557 53.8275 66.072 53.6221 66.6128 53.533C67.1093 53.4514 67.6158 53.4514 68.1122 53.533C68.9365 53.6756 69.7225 53.987 70.4208 54.4476C70.884 54.7442 71.3168 55.0859 71.7128 55.4676C71.9882 55.7396 72.1208 55.9096 72.1004 55.9368C72.08 55.964 71.893 55.8484 71.5802 55.6274C71.1432 55.3147 70.6892 55.0264 70.2202 54.7638C69.5437 54.3808 68.8028 54.1249 68.034 54.009C67.5887 53.9503 67.137 53.9595 66.6944 54.0362C66.2274 54.1232 65.783 54.3049 65.3888 54.57C65.0036 54.809 64.6884 55.1455 64.4752 55.5456C64.2621 55.9457 64.1585 56.395 64.175 56.848C64.1683 57.2545 64.2199 57.6598 64.328 58.0516C64.4238 58.3909 64.5718 58.7132 64.7666 59.007C64.9328 59.2479 65.1319 59.4642 65.3582 59.6496C65.531 59.7941 65.7165 59.9227 65.9124 60.0338C66.0722 60.1324 66.2082 60.1834 66.2966 60.2378C66.385 60.2922 66.4394 60.333 66.4326 60.3534Z" fill="#333CC1"/>
<path d="M65.0828 70.9818C65.0828 70.9818 65.0216 70.9818 64.9196 70.9818C64.7705 70.9539 64.6238 70.9141 64.481 70.8628C64.2548 70.7739 64.0392 70.6598 63.8384 70.5228C63.5665 70.3428 63.3254 70.12 63.1244 69.8632C62.8794 69.549 62.6908 69.1947 62.5668 68.816C62.423 68.3851 62.3484 67.9341 62.3458 67.4798C62.3269 66.9631 62.4306 66.4493 62.6484 65.9804C62.9086 65.4893 63.2872 65.0709 63.75 64.7632C64.2056 64.4562 64.7214 64.2498 65.263 64.158C65.7595 64.0763 66.266 64.0763 66.7624 64.158C67.5855 64.3012 68.3702 64.6126 69.0676 65.0726C69.5308 65.3692 69.9636 65.7109 70.3596 66.0926C70.6384 66.3646 70.771 66.5346 70.7472 66.5584C70.7234 66.5822 70.5432 66.47 70.2304 66.2524C69.7932 65.9399 69.3392 65.6516 68.8704 65.3888C68.1946 65.0042 67.4533 64.7483 66.6842 64.634C66.2401 64.5736 65.7893 64.5827 65.348 64.6612C64.8807 64.7455 64.4361 64.9261 64.0424 65.1916C63.6521 65.4512 63.3302 65.8011 63.104 66.2116C62.9156 66.605 62.8213 67.0369 62.8286 67.473C62.8192 67.8794 62.8696 68.2849 62.9782 68.6766C63.0756 69.0148 63.2247 69.3359 63.4202 69.6286C63.5844 69.871 63.7825 70.0885 64.0084 70.2746C64.1821 70.4179 64.3675 70.5464 64.5626 70.6588C64.7224 70.754 64.8618 70.8084 64.9468 70.8628C65.0318 70.9172 65.0862 70.9648 65.0828 70.9818Z" fill="#333CC1"/>
<path d="M63.7295 81.6C63.7295 81.617 63.6717 81.617 63.5697 81.6C63.4205 81.574 63.2737 81.5353 63.1311 81.4844C62.9035 81.396 62.6868 81.2819 62.4851 81.1444C62.2146 80.9625 61.9738 80.74 61.7711 80.4848C61.5286 80.1702 61.3402 79.8174 61.2135 79.441C61.0697 79.0101 60.9951 78.5591 60.9925 78.1048C60.9732 77.5877 61.0781 77.0735 61.2985 76.6054C61.5575 76.1126 61.9363 75.6928 62.4001 75.3848C62.8583 75.0821 63.3769 74.8825 63.9199 74.8C64.4164 74.7184 64.9228 74.7184 65.4193 74.8C66.243 74.9447 67.0285 75.2559 67.7279 75.7146C68.1911 76.0112 68.6239 76.3529 69.0199 76.7346C69.2953 77.0066 69.4279 77.1766 69.4041 77.2038C69.3803 77.231 69.2001 77.1154 68.8873 76.8944C68.4498 76.5823 67.9958 76.294 67.5273 76.0308C66.8515 75.6469 66.1101 75.3921 65.3411 75.2794C64.8972 75.2178 64.4463 75.2259 64.0049 75.3032C63.5378 75.3902 63.0935 75.5718 62.6993 75.837C62.3128 76.0754 61.9967 76.4124 61.7834 76.8133C61.5701 77.2142 61.4673 77.6646 61.4855 78.1184C61.4769 78.5238 61.5285 78.9283 61.6385 79.3186C61.7327 79.6585 61.8807 79.981 62.0771 80.274C62.2441 80.5151 62.4431 80.7325 62.6687 80.92C62.8404 81.0633 63.0247 81.1908 63.2195 81.3008C63.3827 81.3994 63.5187 81.4504 63.6071 81.5048C63.6955 81.5592 63.7363 81.6 63.7295 81.6Z" fill="#333CC1"/>
<path d="M62.3798 92.242C62.3798 92.2624 62.3186 92.259 62.2166 92.242C62.0674 92.2141 61.9208 92.1743 61.778 92.123C61.5511 92.0355 61.3354 91.9213 61.1354 91.783C60.8628 91.6012 60.6207 91.3774 60.418 91.12C60.1753 90.8061 59.9879 90.4531 59.8638 90.0762C59.7203 89.644 59.6457 89.192 59.6428 88.7366C59.6208 88.2197 59.7246 87.7051 59.9454 87.2372C60.2065 86.7468 60.5849 86.3286 61.047 86.02C61.5022 85.7124 62.0182 85.506 62.56 85.4148C63.0564 85.3331 63.5629 85.3331 64.0594 85.4148C64.8825 85.558 65.6672 85.8694 66.3646 86.3294C66.8278 86.626 67.2606 86.9677 67.6566 87.3494C67.9354 87.6214 68.068 87.7914 68.0442 87.8186C68.0204 87.8458 67.8368 87.7268 67.524 87.5092C67.0875 87.1956 66.6334 86.9073 66.164 86.6456C65.4882 86.261 64.7469 86.0051 63.9778 85.8908C63.5325 85.8304 63.0806 85.8396 62.6382 85.918C62.1719 86.0021 61.7283 86.1828 61.336 86.4484C60.9457 86.708 60.6238 87.0579 60.3976 87.4684C60.2095 87.8619 60.1153 88.2937 60.1222 88.7298C60.1128 89.1362 60.1632 89.5417 60.2718 89.9334C60.3671 90.2735 60.5163 90.596 60.7138 90.8888C60.8778 91.1303 61.0759 91.3467 61.302 91.5314C61.4825 91.6829 61.6759 91.8183 61.88 91.936C62.0398 92.0312 62.1792 92.0856 62.2642 92.14C62.3492 92.1944 62.3832 92.225 62.3798 92.242Z" fill="#333CC1"/>
<path d="M61.0266 102.874C61.0266 102.891 60.9654 102.891 60.8634 102.874C60.715 102.849 60.5693 102.81 60.4282 102.758C60.2012 102.669 59.9846 102.555 59.7822 102.418C59.5118 102.235 59.271 102.011 59.0682 101.755C58.8232 101.442 58.6345 101.089 58.5106 100.711C58.3668 100.28 58.2922 99.8295 58.2896 99.3752C58.2703 98.8581 58.3752 98.344 58.5956 97.8758C58.8534 97.3832 59.2311 96.9634 59.6938 96.6552C60.1498 96.3497 60.6656 96.1446 61.2068 96.0534C61.7033 95.9718 62.2097 95.9718 62.7062 96.0534C63.5299 96.1982 64.3155 96.5094 65.0148 96.968C65.4771 97.2645 65.9087 97.6062 66.3034 97.988C66.5822 98.26 66.7148 98.43 66.691 98.4572C66.6672 98.4844 66.487 98.3688 66.1742 98.1478C65.7362 97.8365 65.2822 97.5482 64.8142 97.2842C64.1384 96.9003 63.397 96.6455 62.628 96.5328C62.1839 96.4724 61.7331 96.4815 61.2918 96.56C60.8245 96.6443 60.3799 96.8249 59.9862 97.0904C59.5959 97.35 59.274 97.6999 59.0478 98.1104C58.861 98.5044 58.7668 98.9358 58.7724 99.3718C58.7621 99.7773 58.8137 100.182 58.9254 100.572C59.0196 100.912 59.1677 101.234 59.364 101.527C59.5299 101.768 59.7278 101.986 59.9522 102.173C60.1265 102.316 60.3118 102.444 60.5064 102.558C60.6662 102.653 60.8056 102.704 60.8906 102.758C60.9756 102.813 61.0334 102.857 61.0266 102.874Z" fill="#333CC1"/>
<path d="M59.6734 113.502C59.6734 113.523 59.6156 113.519 59.5136 113.502C59.364 113.476 59.2171 113.437 59.075 113.383C58.8467 113.296 58.6298 113.182 58.429 113.043C58.1585 112.861 57.9177 112.639 57.715 112.384C57.4725 112.069 57.2841 111.716 57.1574 111.34C57.0168 110.907 56.9423 110.455 56.9364 110C56.9174 109.483 57.0223 108.969 57.2424 108.501C57.5035 108.01 57.882 107.592 58.344 107.284C58.7983 106.977 59.313 106.77 59.8536 106.678C60.3501 106.597 60.8565 106.597 61.353 106.678C62.1773 106.821 62.9633 107.132 63.6616 107.593C64.1248 107.89 64.5576 108.231 64.9536 108.613C65.229 108.885 65.3616 109.055 65.3378 109.082C65.314 109.109 65.1338 108.99 64.821 108.773C64.384 108.46 63.9299 108.172 63.461 107.909C62.7842 107.524 62.0417 107.268 61.2714 107.154C60.8273 107.094 60.3765 107.103 59.9352 107.182C59.4679 107.266 59.0233 107.446 58.6296 107.712C58.2394 107.971 57.9184 108.321 57.6946 108.732C57.5059 109.125 57.4104 109.557 57.4158 109.993C57.4091 110.4 57.4606 110.805 57.5688 111.197C57.6646 111.536 57.8126 111.859 58.0074 112.152C58.1735 112.393 58.3727 112.61 58.599 112.795C58.7718 112.939 58.9573 113.068 59.1532 113.179C59.313 113.278 59.449 113.329 59.5374 113.383C59.6258 113.438 59.6802 113.485 59.6734 113.502Z" fill="#333CC1"/>
<g opacity="0.2">
<path opacity="0.2" d="M70.4888 28.4614C70.4888 28.4784 70.431 28.4784 70.329 28.4614C70.1794 28.4371 70.0325 28.3984 69.8904 28.3458C69.6633 28.2563 69.4467 28.1423 69.2444 28.0058C68.9746 27.8217 68.734 27.5982 68.5304 27.3428C68.2879 27.0282 68.0994 26.6755 67.9728 26.299C67.8289 25.8681 67.7543 25.4171 67.7518 24.9628C67.7325 24.4457 67.8374 23.9316 68.0578 23.4634C68.3168 22.9706 68.6956 22.5508 69.1594 22.2428C69.6139 21.9369 70.1286 21.7317 70.669 21.641C71.1654 21.5594 71.6719 21.5594 72.1684 21.641C72.9921 21.7858 73.7776 22.097 74.477 22.5556C74.9402 22.8522 75.373 23.1939 75.769 23.5756C76.0444 23.8476 76.177 24.0176 76.1532 24.0448C76.1294 24.072 75.9492 23.9564 75.6364 23.7354C75.1989 23.4233 74.7449 23.135 74.2764 22.8718C73.6005 22.4879 72.8592 22.2331 72.0902 22.1204C71.6461 22.06 71.1953 22.0692 70.754 22.1476C70.2867 22.2319 69.842 22.4125 69.4484 22.678C69.0581 22.9376 68.7362 23.2875 68.51 23.698C68.3232 24.092 68.229 24.5235 68.2346 24.9594C68.2276 25.3648 68.2792 25.769 68.3876 26.1596C68.4834 26.4989 68.6313 26.8212 68.8262 27.115C68.9932 27.3562 69.1922 27.5735 69.4178 27.761C69.5909 27.9051 69.7763 28.0336 69.972 28.1452C70.1318 28.2404 70.2678 28.2914 70.3562 28.3458C70.4446 28.4002 70.4956 28.4444 70.4888 28.4614Z" fill="black"/>
<path opacity="0.2" d="M69.1391 39.1C69.1391 39.1204 69.0779 39.1 68.9759 39.1C68.8263 39.0738 68.6795 39.034 68.5373 38.981C68.3104 38.8935 68.0947 38.7794 67.8947 38.641C67.6227 38.461 67.3816 38.2383 67.1807 37.9814C66.9357 37.6685 66.747 37.3153 66.6231 36.9376C66.4793 36.5055 66.4047 36.0534 66.4021 35.598C66.3801 35.0811 66.4839 34.5666 66.7047 34.0986C66.9658 33.6082 67.3442 33.19 67.8063 32.8814C68.2615 32.5738 68.7775 32.3675 69.3193 32.2762C69.8157 32.1945 70.3222 32.1945 70.8187 32.2762C71.6417 32.4195 72.4265 32.7308 73.1239 33.1908C73.5871 33.4874 74.0198 33.8291 74.4159 34.2108C74.6947 34.4828 74.8273 34.6528 74.8035 34.68C74.7797 34.7072 74.5995 34.5882 74.2833 34.3706C73.8468 34.0571 73.3927 33.7687 72.9233 33.507C72.2474 33.1225 71.5062 32.8665 70.7371 32.7522C70.2918 32.6918 69.8399 32.701 69.3975 32.7794C68.9339 32.868 68.4939 33.0521 68.1055 33.32C67.7152 33.5796 67.3933 33.9295 67.1671 34.34C66.9794 34.7337 66.8851 35.1654 66.8917 35.6014C66.8822 36.0078 66.9326 36.4133 67.0413 36.805C67.1365 37.1451 67.2858 37.4677 67.4833 37.7604C67.6473 38.0019 67.8454 38.2184 68.0715 38.403C68.2442 38.5475 68.4297 38.6761 68.6257 38.7872C68.7855 38.8858 68.9249 38.9368 69.0099 38.9912C69.0949 39.0456 69.1425 39.0728 69.1391 39.1Z" fill="black"/>
<path opacity="0.2" d="M67.7858 49.7216C67.7858 49.7216 67.7246 49.7216 67.6226 49.7216C67.4742 49.6968 67.3285 49.6581 67.1874 49.606C66.6526 49.4041 66.1826 49.061 65.8274 48.6132C65.5831 48.2985 65.3945 47.9444 65.2698 47.566C65.1259 47.1351 65.0513 46.6841 65.0488 46.2298C65.0295 45.7127 65.1344 45.1986 65.3548 44.7304C65.6117 44.2381 65.9896 43.8193 66.453 43.5132C66.9088 43.2067 67.4245 43.0005 67.966 42.908C68.4624 42.8264 68.9689 42.8264 69.4654 42.908C70.2897 43.0523 71.0756 43.3648 71.774 43.826C72.2362 44.1225 72.6679 44.4642 73.0626 44.846C73.3414 45.1146 73.474 45.2846 73.4502 45.3118C73.4264 45.339 73.2462 45.2234 72.9334 45.0024C72.4952 44.6924 72.0412 44.4053 71.5734 44.1422C70.8984 43.7557 70.1568 43.4996 69.3872 43.3874C68.9431 43.327 68.4922 43.3361 68.051 43.4146C67.5837 43.4989 67.139 43.6795 66.7454 43.945C66.3551 44.2046 66.0332 44.5545 65.807 44.965C65.6202 45.359 65.526 45.7905 65.5316 46.2264C65.5213 46.6319 65.5729 47.0366 65.6846 47.4266C65.7787 47.7665 65.9268 48.089 66.1232 48.382C66.2891 48.6229 66.487 48.8403 66.7114 49.028C66.8856 49.1705 67.071 49.299 67.2656 49.4122C67.4288 49.5074 67.5648 49.5618 67.6498 49.6162C67.7348 49.6706 67.7926 49.7046 67.7858 49.7216Z" fill="black"/>
<path opacity="0.2" d="M66.4326 60.3534C66.4326 60.3704 66.3748 60.3704 66.2728 60.3534C66.1232 60.3276 65.9764 60.2878 65.8342 60.2344C65.6067 60.1483 65.3908 60.0341 65.1916 59.8944C64.9193 59.7136 64.6772 59.491 64.4742 59.2348C64.2317 58.9202 64.0433 58.5675 63.9166 58.191C63.7758 57.7582 63.7013 57.3066 63.6956 56.8514C63.6768 56.3344 63.7818 55.8204 64.0016 55.352C64.2627 54.8616 64.6412 54.4434 65.1032 54.1348C65.557 53.8275 66.072 53.6221 66.6128 53.533C67.1093 53.4514 67.6158 53.4514 68.1122 53.533C68.9365 53.6756 69.7225 53.987 70.4208 54.4476C70.884 54.7442 71.3168 55.0859 71.7128 55.4676C71.9882 55.7396 72.1208 55.9096 72.1004 55.9368C72.08 55.964 71.893 55.8484 71.5802 55.6274C71.1432 55.3147 70.6892 55.0264 70.2202 54.7638C69.5437 54.3808 68.8028 54.1249 68.034 54.009C67.5887 53.9503 67.137 53.9595 66.6944 54.0362C66.2274 54.1232 65.783 54.3049 65.3888 54.57C65.0036 54.809 64.6884 55.1456 64.4752 55.5456C64.2621 55.9457 64.1585 56.395 64.175 56.848C64.1683 57.2545 64.2199 57.6598 64.328 58.0516C64.4238 58.3909 64.5718 58.7132 64.7666 59.007C64.9328 59.2479 65.1319 59.4642 65.3582 59.6496C65.531 59.7941 65.7165 59.9227 65.9124 60.0338C66.0722 60.1324 66.2082 60.1834 66.2966 60.2378C66.385 60.2922 66.4394 60.333 66.4326 60.3534Z" fill="black"/>
<path opacity="0.2" d="M65.0828 70.9818C65.0828 70.9818 65.0216 70.9818 64.9196 70.9818C64.7705 70.9539 64.6238 70.9141 64.481 70.8628C64.2548 70.7739 64.0392 70.6598 63.8384 70.5228C63.5665 70.3428 63.3254 70.12 63.1244 69.8632C62.8794 69.549 62.6908 69.1947 62.5668 68.816C62.423 68.3851 62.3484 67.9341 62.3458 67.4798C62.3269 66.9631 62.4306 66.4493 62.6484 65.9804C62.9086 65.4893 63.2872 65.0709 63.75 64.7632C64.2056 64.4562 64.7214 64.2498 65.263 64.158C65.7595 64.0763 66.266 64.0763 66.7624 64.158C67.5855 64.3012 68.3702 64.6126 69.0676 65.0726C69.5308 65.3692 69.9636 65.7109 70.3596 66.0926C70.6384 66.3646 70.771 66.5346 70.7472 66.5584C70.7234 66.5822 70.5432 66.47 70.2304 66.2524C69.7932 65.9399 69.3392 65.6516 68.8704 65.3888C68.1946 65.0042 67.4533 64.7483 66.6842 64.634C66.2401 64.5736 65.7893 64.5827 65.348 64.6612C64.8807 64.7455 64.4361 64.9261 64.0424 65.1916C63.6521 65.4512 63.3302 65.8011 63.104 66.2116C62.9156 66.605 62.8213 67.0369 62.8286 67.473C62.8192 67.8794 62.8696 68.2849 62.9782 68.6766C63.0756 69.0148 63.2247 69.3359 63.4202 69.6286C63.5844 69.871 63.7825 70.0885 64.0084 70.2746C64.1821 70.4179 64.3675 70.5464 64.5626 70.6588C64.7224 70.754 64.8618 70.8084 64.9468 70.8628C65.0318 70.9172 65.0862 70.9648 65.0828 70.9818Z" fill="black"/>
<path opacity="0.2" d="M63.7295 81.6C63.7295 81.617 63.6717 81.617 63.5697 81.6C63.4205 81.574 63.2737 81.5353 63.1311 81.4844C62.9035 81.396 62.6868 81.2819 62.4851 81.1444C62.2146 80.9625 61.9738 80.74 61.7711 80.4848C61.5286 80.1702 61.3402 79.8174 61.2135 79.441C61.0697 79.0101 60.9951 78.5591 60.9925 78.1048C60.9732 77.5877 61.0781 77.0735 61.2985 76.6054C61.5575 76.1126 61.9363 75.6928 62.4001 75.3848C62.8583 75.0821 63.3769 74.8825 63.9199 74.8C64.4164 74.7184 64.9228 74.7184 65.4193 74.8C66.243 74.9447 67.0285 75.2559 67.7279 75.7146C68.1911 76.0112 68.6239 76.3529 69.0199 76.7346C69.2953 77.0066 69.4279 77.1766 69.4041 77.2038C69.3803 77.231 69.2001 77.1154 68.8873 76.8944C68.4498 76.5823 67.9958 76.294 67.5273 76.0308C66.8515 75.6469 66.1101 75.3921 65.3411 75.2794C64.8972 75.2178 64.4463 75.2259 64.0049 75.3032C63.5378 75.3902 63.0935 75.5718 62.6993 75.837C62.3128 76.0754 61.9967 76.4124 61.7834 76.8133C61.5701 77.2142 61.4673 77.6646 61.4855 78.1184C61.4769 78.5238 61.5285 78.9283 61.6385 79.3186C61.7327 79.6585 61.8807 79.981 62.0771 80.274C62.2441 80.5151 62.4431 80.7325 62.6687 80.92C62.8404 81.0633 63.0247 81.1908 63.2195 81.3008C63.3827 81.3994 63.5187 81.4504 63.6071 81.5048C63.6955 81.5592 63.7363 81.6 63.7295 81.6Z" fill="black"/>
<path opacity="0.2" d="M62.3798 92.242C62.3798 92.2624 62.3186 92.259 62.2166 92.242C62.0674 92.2141 61.9208 92.1743 61.778 92.123C61.5511 92.0355 61.3354 91.9213 61.1354 91.783C60.8628 91.6012 60.6207 91.3774 60.418 91.12C60.1753 90.8061 59.9879 90.4531 59.8638 90.0762C59.7203 89.644 59.6457 89.192 59.6428 88.7366C59.6208 88.2197 59.7246 87.7051 59.9454 87.2372C60.2065 86.7468 60.5849 86.3286 61.047 86.02C61.5022 85.7124 62.0182 85.506 62.56 85.4148C63.0564 85.3331 63.5629 85.3331 64.0594 85.4148C64.8825 85.558 65.6672 85.8694 66.3646 86.3294C66.8278 86.626 67.2606 86.9677 67.6566 87.3494C67.9354 87.6214 68.068 87.7914 68.0442 87.8186C68.0204 87.8458 67.8368 87.7268 67.524 87.5092C67.0875 87.1956 66.6334 86.9073 66.164 86.6456C65.4882 86.261 64.7469 86.0051 63.9778 85.8908C63.5325 85.8304 63.0806 85.8396 62.6382 85.918C62.1719 86.0021 61.7283 86.1828 61.336 86.4484C60.9457 86.708 60.6238 87.0579 60.3976 87.4684C60.2095 87.8619 60.1153 88.2937 60.1222 88.7298C60.1128 89.1362 60.1632 89.5417 60.2718 89.9334C60.3671 90.2735 60.5163 90.596 60.7138 90.8888C60.8778 91.1303 61.0759 91.3467 61.302 91.5314C61.4825 91.6829 61.6759 91.8183 61.88 91.936C62.0398 92.0312 62.1792 92.0856 62.2642 92.14C62.3492 92.1944 62.3832 92.225 62.3798 92.242Z" fill="black"/>
<path opacity="0.2" d="M61.0266 102.874C61.0266 102.891 60.9654 102.891 60.8634 102.874C60.715 102.849 60.5693 102.81 60.4282 102.758C60.2012 102.669 59.9846 102.555 59.7822 102.418C59.5118 102.235 59.271 102.011 59.0682 101.755C58.8232 101.442 58.6345 101.089 58.5106 100.711C58.3668 100.28 58.2922 99.8295 58.2896 99.3752C58.2703 98.8581 58.3752 98.344 58.5956 97.8758C58.8534 97.3832 59.2311 96.9635 59.6938 96.6552C60.1498 96.3498 60.6656 96.1446 61.2068 96.0534C61.7033 95.9718 62.2097 95.9718 62.7062 96.0534C63.5299 96.1982 64.3155 96.5094 65.0148 96.968C65.4771 97.2645 65.9087 97.6062 66.3034 97.988C66.5822 98.26 66.7148 98.43 66.691 98.4572C66.6672 98.4844 66.487 98.3688 66.1742 98.1478C65.7362 97.8365 65.2822 97.5482 64.8142 97.2842C64.1384 96.9003 63.397 96.6455 62.628 96.5328C62.1839 96.4724 61.7331 96.4816 61.2918 96.56C60.8245 96.6443 60.3799 96.8249 59.9862 97.0904C59.5959 97.35 59.274 97.6999 59.0478 98.1104C58.861 98.5044 58.7668 98.9359 58.7724 99.3718C58.7621 99.7773 58.8137 100.182 58.9254 100.572C59.0196 100.912 59.1677 101.234 59.364 101.527C59.5299 101.768 59.7278 101.986 59.9522 102.173C60.1265 102.316 60.3118 102.444 60.5064 102.558C60.6662 102.653 60.8056 102.704 60.8906 102.758C60.9756 102.813 61.0334 102.857 61.0266 102.874Z" fill="black"/>
<path opacity="0.2" d="M59.6734 113.502C59.6734 113.523 59.6156 113.519 59.5136 113.502C59.364 113.476 59.2171 113.437 59.075 113.383C58.8467 113.296 58.6298 113.182 58.429 113.043C58.1585 112.861 57.9177 112.639 57.715 112.384C57.4725 112.069 57.2841 111.716 57.1574 111.34C57.0168 110.907 56.9423 110.455 56.9364 110C56.9174 109.483 57.0223 108.969 57.2424 108.501C57.5035 108.01 57.882 107.592 58.344 107.284C58.7983 106.977 59.313 106.77 59.8536 106.678C60.3501 106.597 60.8565 106.597 61.353 106.678C62.1773 106.821 62.9633 107.132 63.6616 107.593C64.1248 107.89 64.5576 108.231 64.9536 108.613C65.229 108.885 65.3616 109.055 65.3378 109.082C65.314 109.109 65.1338 108.99 64.821 108.773C64.384 108.46 63.9299 108.172 63.461 107.909C62.7842 107.524 62.0417 107.268 61.2714 107.154C60.8273 107.094 60.3765 107.103 59.9352 107.182C59.4679 107.266 59.0233 107.447 58.6296 107.712C58.2394 107.971 57.9184 108.321 57.6946 108.732C57.5059 109.125 57.4104 109.557 57.4158 109.993C57.4091 110.4 57.4606 110.805 57.5688 111.197C57.6646 111.536 57.8126 111.859 58.0074 112.152C58.1735 112.393 58.3727 112.61 58.599 112.795C58.7718 112.94 58.9573 113.068 59.1532 113.179C59.313 113.278 59.449 113.329 59.5374 113.383C59.6258 113.438 59.6802 113.485 59.6734 113.502Z" fill="black"/>
</g>
<path d="M142.712 39.5253L142.088 44.426L150.294 45.4699L150.918 40.5692L142.712 39.5253Z" fill="#333CC1"/>
<path d="M136.262 43.2174C136.217 43.222 136.171 43.222 136.126 43.2174L135.728 43.18L134.205 42.9964L128.598 42.2824L110.119 39.8582L104.853 39.1578C103.153 38.9334 101.51 38.7022 99.9498 38.5118C98.4756 38.3047 96.9809 38.2887 95.5026 38.4642C94.1256 38.658 92.8234 38.9538 91.613 38.8042C91.0409 38.7396 90.4861 38.5677 89.9776 38.2976C89.4982 38.046 89.08 37.757 88.6788 37.5088C88.3127 37.2683 87.9245 37.0634 87.5194 36.8968C87.1761 36.7705 86.8141 36.7027 86.4484 36.6962C85.9375 36.67 85.435 36.8335 85.0374 37.1552C84.9084 37.2761 84.7942 37.4119 84.6974 37.5598C84.7147 37.5169 84.7363 37.4759 84.762 37.4374C84.7886 37.3877 84.8205 37.3409 84.8572 37.298C84.9038 37.2354 84.9574 37.1784 85.017 37.128C85.4143 36.785 85.9274 36.6063 86.4518 36.6282C86.8271 36.6293 87.1995 36.6937 87.5534 36.8186C87.9665 36.9743 88.3638 37.1689 88.74 37.4C89.1446 37.6482 89.5662 37.9304 90.0388 38.1752C90.5373 38.4329 91.079 38.5966 91.6368 38.658C92.82 38.7906 94.1052 38.4948 95.4924 38.2908C96.9822 38.1059 98.4898 38.1162 99.977 38.3214C101.548 38.5084 103.183 38.7396 104.887 38.9572L110.153 39.6372L128.625 42.1124L134.222 42.8842L135.745 43.1018L136.139 43.163C136.182 43.1765 136.223 43.1948 136.262 43.2174Z" fill="#263238"/>
<path d="M134.824 48.1644H134.698L134.327 48.1236L132.899 47.9604L127.66 47.3212L110.378 45.152L93.0988 42.9284L87.8662 42.2484L86.445 42.0478L86.0744 41.9934C86.0319 41.9888 85.9899 41.9808 85.9486 41.9696C85.9915 41.9636 86.035 41.9636 86.0778 41.9696L86.4484 42.007L87.873 42.1702L93.1158 42.8094L110.401 44.982L127.677 47.2056L132.909 47.8856L134.331 48.0828L134.701 48.1372C134.743 48.1406 134.784 48.1498 134.824 48.1644Z" fill="#263238"/>
<path d="M127.789 86.36H127.67L127.33 86.326L125.97 86.1696L120.989 85.5644L104.56 83.5006L88.1383 81.3858L83.1641 80.7262L81.8041 80.5358L81.4641 80.4848L81.3451 80.461C81.3857 80.4559 81.4269 80.4559 81.4675 80.461L81.8075 80.4984L83.1675 80.6548L88.1451 81.26L104.574 83.3238L120.992 85.4352L125.97 86.1152L127.33 86.3022L127.67 86.3566C127.71 86.3544 127.75 86.3555 127.789 86.36Z" fill="#263238"/>
<path d="M101.66 87.4174C101.589 87.4257 101.517 87.4257 101.446 87.4174L100.837 87.3562L98.5966 87.0978L91.2186 86.1866L83.8474 85.221L81.6136 84.9116L81.0084 84.8164C80.9367 84.8094 80.8661 84.7946 80.7976 84.7722C80.8687 84.7632 80.9407 84.7632 81.0118 84.7722L81.6238 84.8334L83.861 85.0884L91.2288 86.02L98.6 86.9686L100.834 87.2814L101.439 87.3732C101.514 87.3788 101.588 87.3936 101.66 87.4174Z" fill="#263238"/>
<path d="M92.2012 47.0662C92.2012 47.1138 90.4434 46.9302 88.2911 46.6582C86.1389 46.3862 84.4015 46.121 84.4083 46.0734C84.4151 46.0258 86.1627 46.206 88.315 46.4814C90.4672 46.7568 92.2046 47.0152 92.2012 47.0662Z" fill="#263238"/>
<path d="M42.8399 100.45C42.8399 100.45 84.4457 59.3096 89.1785 52.7918L86.3293 50.1738L39.4093 96.8354L42.8399 100.45Z" fill="#E0E0E0"/>
<path d="M30.1613 109.14C32.0347 109.174 37.0939 108.46 44.2169 101.102L50.5035 95.4312L45.6959 90.78C45.6959 90.78 55.2805 81.8992 54.8249 81.413C54.3693 80.9268 49.2693 85.68 45.2437 89.1514C41.5819 92.3236 29.3589 103.503 29.0733 107.94C29.0622 108.091 29.0819 108.243 29.1312 108.386C29.1805 108.529 29.2584 108.661 29.3602 108.773C29.4619 108.885 29.5854 108.976 29.7231 109.039C29.8608 109.102 30.0099 109.136 30.1613 109.14Z" fill="#333CC1"/>
<path opacity="0.2" d="M54.8249 81.4232C54.3659 80.937 49.2693 85.6664 45.2437 89.1514C44.9275 89.4268 44.5399 89.7634 44.1081 90.151L48.8851 94.7274L42.6087 100.412C36.1487 107.097 31.3887 108.317 29.1719 108.463C29.2548 108.659 29.392 108.827 29.5673 108.948C29.7426 109.068 29.9487 109.136 30.1613 109.143C32.0347 109.177 37.0939 108.463 44.2169 101.106L50.5035 95.4346L45.6959 90.78C45.6959 90.78 55.2805 81.9094 54.8249 81.4232Z" fill="black"/>
<path d="M51.17 89.6376L83.963 56.678L82.5758 55.3996L49.8372 88.23L51.17 89.6376Z" fill="#263238"/>
<path d="M89.1547 52.836C89.1547 52.836 92.2657 47.9366 91.3953 47.6782C90.5249 47.4198 86.3361 50.1738 86.3361 50.1738L87.1385 51L82.3785 55.5832L83.9799 56.678L88.3115 52.105L89.1547 52.836Z" fill="#455A64"/>
<path d="M57.1948 75.14C57.6047 75.1709 58.0167 75.1189 58.406 74.9871C58.7954 74.8553 59.1543 74.6464 59.4611 74.3729C59.768 74.0993 60.0166 73.7668 60.1921 73.395C60.3676 73.0233 60.4664 72.62 60.4826 72.2092C60.5472 70.5432 60.605 68.8602 60.605 68.8602C60.605 68.8602 63.1278 68.6256 63.308 66.1402C63.4882 63.6548 63.41 57.8816 63.41 57.8816C62.027 57.1839 60.4828 56.8683 58.937 56.9675C57.3912 57.0668 55.9 57.5772 54.6176 58.446L54.23 58.7078L54.3694 72.1378C54.3815 72.9003 54.678 73.6308 55.2006 74.1861C55.7233 74.7415 56.4344 75.0816 57.1948 75.14Z" fill="#FFBE9D"/>
<path d="M57.0791 54.6176C55.5593 54.5734 54.1823 55.5662 53.4751 56.7868C52.7679 58.0074 52.6183 59.4252 52.5537 60.8022C52.4727 63.5078 52.5363 66.2158 52.7441 68.9146C52.7345 69.1193 52.7957 69.321 52.9175 69.4858C53.1043 69.6385 53.336 69.7257 53.5771 69.734C58.1913 70.3698 62.8704 70.3766 67.4865 69.7544C67.7891 69.2036 67.3607 68.5508 66.8711 68.1292C66.3815 67.7076 65.7695 67.3234 65.5927 66.7284C65.3105 65.7934 66.2387 64.7938 65.8783 63.8826C65.6063 63.2026 64.7053 62.8626 64.3891 62.1826C63.8587 61.0606 65.2289 59.704 64.6203 58.6126C64.3041 58.0448 63.5629 57.7932 63.0937 57.3206C62.6789 56.9024 62.5021 56.3346 62.1451 55.8756C61.5044 55.1591 60.6085 54.7222 59.6495 54.6584C58.7995 54.5198 57.9342 54.5015 57.0791 54.604" fill="#333CC1"/>
<path d="M53.5193 57.46C52.8767 57.7728 52.5979 58.5446 52.4993 59.2552C52.4007 59.9658 52.4313 60.7138 52.1355 61.3666C51.8397 62.0194 51.1597 62.5974 50.9863 63.342C50.7619 64.3144 51.4011 65.4568 50.8231 66.2694C50.4525 66.7896 49.7215 66.9222 49.2625 67.371C48.6301 67.9932 48.6845 69.0098 48.7865 69.8938L57.1233 69.819" fill="#333CC1"/>
<path d="M55.3587 56.1476C55.283 55.742 55.1097 55.3609 54.8539 55.0372C54.598 54.7135 54.2672 54.4569 53.89 54.2895C53.5129 54.1222 53.1006 54.0491 52.6889 54.0767C52.2772 54.1042 51.8784 54.2315 51.5269 54.4476C50.1975 55.2704 49.7249 57.2322 48.2289 57.6878C47.8379 57.8068 47.3585 57.8408 47.1511 58.1944C46.9437 58.548 47.2055 59.058 47.5863 59.2416C47.9877 59.3884 48.4215 59.4225 48.8409 59.3402C48.7187 59.3276 48.5952 59.3433 48.4801 59.3862C48.3649 59.429 48.2612 59.4979 48.177 59.5874C48.0928 59.6768 48.0304 59.7845 47.9946 59.902C47.9587 60.0196 47.9505 60.1438 47.9705 60.265C48.0383 60.5063 48.1926 60.7143 48.4039 60.8491C48.6153 60.984 48.8689 61.0362 49.1163 60.996C49.3625 60.9437 49.5904 60.8266 49.7762 60.6569C49.9621 60.4871 50.0993 60.2709 50.1737 60.0304C49.9901 60.554 49.8088 61.0776 49.6297 61.6012C50.6667 61.7848 51.5507 60.8498 52.0743 59.9386C52.5979 59.0274 53.0943 57.9598 54.0497 57.5586C54.4815 57.3784 54.9813 57.3444 55.3519 57.0588C55.7225 56.7732 55.7973 56.0592 55.3519 55.9232" fill="#333CC1"/>
<path d="M55.7905 56.1782C55.7905 56.1782 55.9843 56.253 56.1543 56.5182C56.2682 56.6978 56.3384 56.9017 56.3593 57.1134C56.3801 57.3251 56.351 57.5387 56.2743 57.7371C56.1976 57.9355 56.0754 58.1131 55.9176 58.2558C55.7597 58.3984 55.5706 58.5019 55.3655 58.5582C55.2033 58.6193 55.0245 58.6193 54.8623 58.5582C54.8623 58.5276 55.0527 58.5378 55.3247 58.429C55.5017 58.3658 55.663 58.2654 55.7978 58.1345C55.9326 58.0036 56.0378 57.8453 56.1061 57.6703C56.1744 57.4952 56.2044 57.3076 56.1939 57.12C56.1835 56.9323 56.1329 56.7492 56.0455 56.5828C55.9197 56.3244 55.7599 56.202 55.7905 56.1782Z" fill="#263238"/>
<path d="M64.8311 135.408L69.1049 155.118L74.7421 154.989L72.2431 133.664L64.8311 135.408Z" fill="#FFBE9D"/>
<path d="M44.7269 80.4848C44.7269 80.4848 44.6317 80.6242 44.4753 80.8724C43.5709 82.3106 41.0209 87.4684 43.1697 90.9194L48.5621 86.1798L49.4699 84.0514" fill="#FFBE9D"/>
<path d="M47.8345 119.49L46.0189 153.146L51.5677 154.486L55.7293 120.2L47.8345 119.49Z" fill="#FFBE9D"/>
<path d="M72.3452 77.18L64.5252 79.067L64.073 85.102L65.161 88.5428C65.161 88.6652 66.9222 94.452 66.9222 94.452L67.4696 96.3662L49.5924 96.5532C49.5312 94.4622 50.9218 92.4018 50.9218 92.4018C51.9418 90.678 51.6766 88.0736 51.204 86.0982C51.0544 85.4726 50.864 84.439 50.7756 83.8032V83.691L49.7556 85.4896L43.52 81.0016C45.5362 77.112 48.4942 73.1816 48.8512 72.8892C50.1436 71.8082 51.7701 71.2076 53.4548 71.1892L61.1728 71.2572C61.1728 71.2572 67.2486 70.4956 70.7914 69.8972L72.3452 77.18Z" fill="#455A64"/>
<path d="M70.9545 70.7744C70.6668 70.9375 70.3967 71.1301 70.1487 71.349C69.9073 71.5598 69.6387 71.8454 69.3293 72.1786C68.9836 72.5694 68.5998 72.9248 68.1835 73.2394C67.0837 74.0527 65.7768 74.5394 64.4129 74.6436C63.6126 74.704 62.8078 74.6281 62.0329 74.4192C61.2271 74.1982 60.4417 73.8412 59.6087 73.6032C59.1995 73.4819 58.7771 73.4111 58.3507 73.3924C57.9382 73.3893 57.5269 73.4384 57.1267 73.5386C56.3669 73.7546 55.6309 74.0474 54.9303 74.4124C54.2888 74.7445 53.6267 75.0352 52.9481 75.2828C52.2159 75.5434 51.4386 75.6536 50.6628 75.6068C49.887 75.5601 49.1286 75.3574 48.4329 75.0108C48.2108 74.8997 47.9971 74.7725 47.7937 74.63C47.7214 74.5825 47.6531 74.5291 47.5897 74.4702C47.5897 74.4532 47.8821 74.6776 48.4635 74.9462C49.1531 75.2715 49.9005 75.4564 50.6622 75.4902C51.4239 75.5241 52.1848 75.4062 52.9005 75.1434C53.5709 74.892 54.225 74.599 54.8589 74.2662C55.567 73.8907 56.3122 73.5899 57.0825 73.3686C57.4992 73.2635 57.9278 73.2132 58.3575 73.219C58.7978 73.2347 59.2343 73.3067 59.6563 73.4332C60.5097 73.6746 61.2917 74.035 62.0805 74.2526C62.8396 74.4592 63.6282 74.5363 64.4129 74.4804C65.75 74.3851 67.0342 73.9202 68.1223 73.1374C68.5364 72.8354 68.9202 72.4938 69.2681 72.1174C69.5366 71.8326 69.8191 71.5614 70.1147 71.3048C70.3052 71.1439 70.5113 71.0027 70.7301 70.8832C70.7874 70.8526 70.8465 70.8254 70.9069 70.8016C70.9387 70.7812 70.9545 70.7721 70.9545 70.7744Z" fill="#263238"/>
<path d="M64.1307 80.92C64.0874 80.9783 64.0345 81.0289 63.9743 81.0696C63.8073 81.1959 63.6127 81.2809 63.4065 81.3178C63.0793 81.3751 62.7434 81.3576 62.4239 81.2668C62.0055 81.1431 61.6103 80.9513 61.2543 80.699C60.8357 80.3946 60.3934 80.124 59.9317 79.8898C59.396 79.6582 58.8148 79.5512 58.2317 79.577C56.9771 79.6178 55.6749 80.1448 54.3421 80.7194C53.6887 81.0072 53.0133 81.2426 52.3225 81.4232C51.6725 81.5977 50.995 81.6462 50.3267 81.566C49.7204 81.483 49.1399 81.267 48.6267 80.9336C48.1808 80.6488 47.7749 80.3058 47.4197 79.9136C46.9148 79.3485 46.4672 78.7346 46.0835 78.081C45.9475 77.8532 45.8421 77.673 45.7741 77.5506C45.7366 77.4885 45.7036 77.4237 45.6755 77.3568C45.7256 77.409 45.769 77.4672 45.8047 77.5302L46.1447 78.0436C46.5451 78.6772 47.0001 79.2745 47.5047 79.8286C47.8594 80.2019 48.2592 80.5297 48.6947 80.8044C49.1944 81.1175 49.7557 81.3193 50.3403 81.396C50.9875 81.4694 51.6428 81.4198 52.2715 81.2498C52.9523 81.0665 53.6183 80.8324 54.2639 80.5494C55.5933 79.9782 56.9227 79.441 58.2181 79.4104C58.8293 79.3832 59.4383 79.4996 59.9963 79.7504C60.4605 79.9942 60.905 80.2739 61.3257 80.5868C61.6685 80.8389 62.0496 81.0341 62.4545 81.1648C62.7589 81.2596 63.0805 81.2863 63.3963 81.243C63.6649 81.2004 63.9179 81.0891 64.1307 80.92Z" fill="#263238"/>
<path d="M64.3925 86.7C64.3925 86.7 64.3687 86.7408 64.3041 86.8088C64.2133 86.9091 64.1118 86.9991 64.0015 87.0774C63.5849 87.3572 63.1041 87.5268 62.6041 87.5704C61.8648 87.6315 61.121 87.5305 60.4247 87.2746C59.6359 87.006 58.8301 86.5776 57.9597 86.224C57.1508 85.868 56.2726 85.6973 55.3893 85.7242C54.6694 85.7616 53.9627 85.9322 53.3051 86.2274C52.703 86.5158 52.1454 86.8891 51.6493 87.3358C51.6493 87.3358 51.6731 87.2916 51.7343 87.2236C51.8233 87.1224 51.9187 87.027 52.0199 86.938C52.3895 86.6073 52.8039 86.3304 53.2507 86.1152C53.9186 85.7945 54.6428 85.6074 55.3825 85.5644C56.2896 85.5231 57.194 85.693 58.0243 86.0608C58.9117 86.4212 59.7243 86.8496 60.4791 87.1216C61.1522 87.3771 61.8718 87.4872 62.5905 87.4446C63.0713 87.4137 63.5377 87.268 63.9505 87.0196C64.2599 86.8326 64.3789 86.7 64.3925 86.7Z" fill="#263238"/>
<path d="M66.2998 92.2556C66.2998 92.2556 66.1196 92.1298 65.7694 91.9496C65.2704 91.7099 64.7305 91.5668 64.1782 91.528C63.3564 91.4745 62.5315 91.5642 61.7404 91.7932C60.8428 92.0312 59.8874 92.4154 58.8538 92.7418C57.88 93.0684 56.8583 93.2293 55.8312 93.2178C54.9992 93.2042 54.1735 93.0702 53.3798 92.82C52.8416 92.6487 52.323 92.4208 51.8328 92.14C51.6594 92.0448 51.5302 91.9598 51.4452 91.902C51.3983 91.8746 51.3549 91.8415 51.316 91.8034C51.316 91.8034 51.5132 91.9054 51.8668 92.0788C53.1015 92.7048 54.464 93.0376 55.8482 93.0512C56.8562 93.0529 57.8577 92.8898 58.813 92.5684C59.833 92.2454 60.7986 91.8646 61.7132 91.63C62.5225 91.4053 63.3653 91.327 64.202 91.3988C64.767 91.448 65.3157 91.6136 65.8136 91.885C65.9476 91.9602 66.075 92.0466 66.1944 92.1434C66.2692 92.2114 66.2998 92.2488 66.2998 92.2556Z" fill="#263238"/>
<path d="M49.6195 95.8698L46.1923 135.17L54.6617 135.218L58.8437 103.724L64.3075 135.504L72.7803 133.94L67.5851 96.1996L49.6195 95.8698Z" fill="#263238"/>
<path d="M64.9094 102.68C64.9094 102.731 62.0126 103.115 58.4256 103.54C54.8386 103.965 51.9282 104.271 51.9214 104.22C51.9146 104.169 54.8182 103.788 58.4052 103.363C61.9922 102.938 64.9026 102.646 64.9094 102.68Z" fill="#455A64"/>
<path d="M75.5106 155.564L75.4868 154.935L69.105 155.118L69.1594 157.199H69.5538C71.3116 157.243 78.489 157.304 79.6518 156.944C80.9472 156.55 75.5106 155.564 75.5106 155.564Z" fill="#333CC1"/>
<g opacity="0.6">
<path opacity="0.6" d="M71.4611 157.08C71.3454 156.574 71.0414 156.132 70.6111 155.842C70.1728 155.54 69.6419 155.401 69.1117 155.451L69.1627 157.104L71.4611 157.08Z" fill="white"/>
</g>
<g opacity="0.6">
<path opacity="0.6" d="M78.1694 156.135C78.1694 156.135 80.0768 156.59 79.8694 156.886C79.662 157.182 72.3894 157.372 69.1764 157.199V157.066L77.6424 156.91C77.6424 156.91 77.7988 156.159 78.1694 156.135Z" fill="white"/>
</g>
<path d="M69.0641 157.08H69.1763H69.4891L70.6451 157.097C71.6209 157.097 72.9707 157.097 74.4633 157.06C75.9559 157.022 77.2989 156.958 78.2747 156.903L79.4273 156.828L79.7401 156.801H79.8489H79.7401H79.4273L78.2713 156.852C77.2955 156.896 75.9491 156.951 74.4599 156.988C72.9707 157.026 71.6209 157.039 70.6451 157.046H69.4891H69.1763L69.0641 157.08Z" fill="#263238"/>
<path d="M77.6322 157.002C77.6781 156.822 77.7455 156.649 77.8328 156.485C77.9372 156.329 78.0605 156.186 78.2 156.06C78.0078 156.128 77.8478 156.265 77.7512 156.444C77.6955 156.525 77.6564 156.615 77.636 156.711C77.6155 156.807 77.6143 156.906 77.6322 157.002Z" fill="#263238"/>
<path d="M75.7315 156.165C75.7315 156.165 75.8369 156.074 75.9253 155.934C76.0137 155.795 76.0681 155.676 76.0511 155.666C76.0341 155.655 75.9457 155.761 75.8573 155.897C75.7689 156.033 75.7111 156.155 75.7315 156.165Z" fill="#263238"/>
<path d="M75.2079 155.927C75.2079 155.927 75.3201 155.876 75.4289 155.781C75.5377 155.686 75.6091 155.601 75.5955 155.584C75.5819 155.567 75.4799 155.635 75.3745 155.73C75.2691 155.825 75.1943 155.914 75.2079 155.927Z" fill="#263238"/>
<path d="M74.8646 155.38C74.9743 155.415 75.0904 155.426 75.2046 155.411C75.3196 155.423 75.4359 155.409 75.5446 155.37C75.4349 155.335 75.3188 155.324 75.2046 155.339C75.0897 155.331 74.9742 155.344 74.8646 155.38Z" fill="#263238"/>
<path d="M74.7421 154.989C74.9805 155.095 75.2506 155.106 75.4969 155.02C75.3713 155.009 75.2451 155.009 75.1195 155.02C74.9948 154.999 74.8685 154.988 74.7421 154.989Z" fill="#263238"/>
<path d="M75.9287 155.645C76.0651 155.666 76.2037 155.666 76.3401 155.645C76.4866 155.625 76.631 155.592 76.7719 155.547C76.8565 155.52 76.9384 155.486 77.0167 155.445C77.0633 155.417 77.0983 155.374 77.1153 155.322C77.1203 155.293 77.1164 155.264 77.1043 155.237C77.0922 155.21 77.0723 155.188 77.0473 155.173C76.8898 155.105 76.7147 155.091 76.5485 155.132C76.3823 155.173 76.234 155.268 76.1259 155.4C76.0673 155.477 76.0255 155.565 76.0035 155.659C75.9946 155.692 75.9946 155.727 76.0035 155.761C76.0426 155.638 76.1024 155.523 76.1803 155.421C76.2707 155.317 76.3885 155.24 76.5203 155.2C76.6793 155.146 76.8525 155.154 77.0065 155.22C77.0745 155.261 77.0507 155.332 76.9793 155.377C76.9067 155.416 76.8304 155.448 76.7515 155.472C76.6162 155.52 76.4775 155.559 76.3367 155.587C76.0851 155.628 75.9287 155.635 75.9287 155.645Z" fill="#263238"/>
<path d="M76.0375 155.662C76.082 155.581 76.0953 155.487 76.0749 155.397C76.0606 155.296 76.0195 155.201 75.9559 155.122C75.9186 155.065 75.8681 155.019 75.8088 154.987C75.7495 154.955 75.6833 154.938 75.6159 154.938C75.5964 154.942 75.5778 154.949 75.5613 154.96C75.5447 154.971 75.5305 154.985 75.5194 155.001C75.5083 155.018 75.5006 155.036 75.4968 155.056C75.4929 155.075 75.4929 155.095 75.4969 155.115C75.5092 155.176 75.5347 155.234 75.5717 155.285C75.6277 155.368 75.694 155.443 75.7689 155.509C75.8363 155.577 75.9192 155.627 76.0103 155.655C76.0103 155.655 75.9253 155.591 75.8097 155.472C75.7424 155.405 75.6831 155.331 75.6329 155.251C75.5717 155.169 75.5309 155.026 75.6329 155.006C75.6869 155.011 75.7391 155.027 75.7861 155.054C75.8331 155.081 75.8736 155.118 75.9049 155.162C75.9655 155.232 76.0076 155.317 76.0273 155.407C76.0392 155.492 76.0427 155.577 76.0375 155.662Z" fill="#263238"/>
<path d="M69.1456 155.445C69.1456 155.445 69.3292 155.424 69.6148 155.445C69.9863 155.473 70.3439 155.599 70.6518 155.808C70.9518 156.014 71.1875 156.301 71.3318 156.635C71.3835 156.772 71.4278 156.911 71.4644 157.053C71.4644 157.053 71.4644 157.009 71.4644 156.934C71.452 156.825 71.4257 156.719 71.3862 156.618C71.2537 156.266 71.0163 155.963 70.7062 155.751C70.3861 155.533 70.0116 155.41 69.625 155.394C69.5114 155.388 69.3975 155.393 69.285 155.411C69.2371 155.415 69.1901 155.426 69.1456 155.445Z" fill="#263238"/>
<path d="M72.2432 156.492C72.5499 156.551 72.8629 156.571 73.1748 156.553C73.4867 156.559 73.7983 156.529 74.103 156.461C74.103 156.437 73.6848 156.461 73.1748 156.482C72.6648 156.502 72.2466 156.471 72.2432 156.492Z" fill="#263238"/>
<path d="M70.9988 156.522C70.9988 156.539 71.0362 156.604 71.0804 156.692C71.1246 156.781 71.1518 156.856 71.1722 156.856C71.1926 156.856 71.2028 156.76 71.1484 156.658C71.094 156.556 71.0124 156.509 70.9988 156.522Z" fill="#263238"/>
<path d="M70.5125 155.992C70.5125 155.992 70.5397 156.067 70.6077 156.128C70.6757 156.189 70.7437 156.223 70.7573 156.21C70.7709 156.196 70.7301 156.135 70.6621 156.077C70.5941 156.019 70.5261 155.978 70.5125 155.992Z" fill="#263238"/>
<path d="M69.8325 155.761C69.8325 155.781 69.9243 155.778 70.0161 155.808C70.1079 155.839 70.1793 155.88 70.1963 155.866C70.2133 155.853 70.1589 155.771 70.0399 155.737C69.9209 155.703 69.8257 155.744 69.8325 155.761Z" fill="#263238"/>
<path d="M69.36 155.659C69.36 155.676 69.3906 155.706 69.4416 155.723C69.4926 155.74 69.5436 155.74 69.5504 155.723C69.5572 155.706 69.5232 155.676 69.4688 155.659C69.4144 155.642 69.36 155.638 69.36 155.659Z" fill="#263238"/>
<path d="M45.8557 152.857L44.9105 157.012H51.2957L51.5677 154.306L45.8557 152.857Z" fill="#333CC1"/>
<path d="M51.4249 156.4C51.1181 156.45 50.807 156.467 50.4967 156.451C49.9221 156.451 49.1367 156.451 48.2527 156.41L46.0121 156.315C45.701 156.319 45.3902 156.294 45.0839 156.24C45.3908 156.193 45.7018 156.177 46.0121 156.193C46.5867 156.193 47.3721 156.193 48.2595 156.233L50.4967 156.329C50.8076 156.322 51.1185 156.346 51.4249 156.4Z" fill="#263238"/>
<path d="M48.7219 153.68C48.7813 154.131 48.7813 154.589 48.7219 155.04C48.7196 155.49 48.6602 155.938 48.5451 156.373C48.4825 155.922 48.4825 155.464 48.5451 155.013C48.5447 154.563 48.6042 154.114 48.7219 153.68Z" fill="#263238"/>
<path opacity="0.6" d="M44.9105 157.012H51.2957L51.3569 156.41L45.0261 156.25L44.9105 156.941" fill="white"/>
<path d="M85.7784 56.78L83.4494 57.6198C83.4188 56.6882 82.7694 55.7158 82.7694 56.1816C82.7694 56.6474 82.5484 59.058 82.5484 59.058L77.6932 67.507C77.0132 68.867 75.7994 69.6388 74.9256 69.7782L70.9408 70.6282L72.0798 75.888L77.632 74.528C78.3424 74.3532 79.002 74.0142 79.5576 73.5382C80.1132 73.0623 80.5495 72.4627 80.8314 71.7876L85.4486 60.7138C85.7553 60.0015 86.0154 59.2701 86.2272 58.5242C86.2819 58.2183 86.2702 57.9042 86.1927 57.6032C86.1153 57.3023 85.974 57.0215 85.7784 56.78Z" fill="#FFBE9D"/>
</svg>
