<svg width="164" height="139" viewBox="0 0 164 139" fill="none" xmlns="http://www.w3.org/2000/svg">
<path d="M160.132 35.1631L156.649 52.0817L154.408 49.8879L150.594 52.6183L147.679 48.9863L141.143 53.7535L135.557 44.3834L129.327 48.0446L126.857 44.628L118.945 49.0995L116.565 43.9856L122.111 17.0436L151.842 23.2014L160.132 35.1631Z" fill="#CCCDDC"/>
<path d="M151.842 23.2014L160.132 35.163L149.819 33.0277L151.842 23.2014Z" fill="#DBDBDB"/>
<path d="M155.906 55.4617L150.801 80.283L110.753 71.9897L115.822 47.3693L118.202 52.4795L126.117 48.0081L128.584 51.4246L134.818 47.7671L140.4 57.1372L146.94 52.37L149.851 55.9983L153.668 53.2716L155.906 55.4617Z" fill="#CCCDDC"/>
<path d="M98.589 52.5525L57.7774 55.0857L54.535 2.53773L84.8408 0.654236L95.9653 10.017L98.589 52.5525Z" fill="#CCCDDC"/>
<path d="M84.84 0.654236L95.9645 10.0169L85.455 10.6703L84.84 0.654236Z" fill="#DBDBDB"/>
<path d="M73.5415 36.0136L73.3814 34.8273C72.9702 32.3707 73.6398 29.6221 75.7686 26.7494C77.69 24.1943 78.7308 22.3692 78.6143 20.2959C78.4833 17.9598 76.9367 16.4851 74.0583 16.6019C72.4132 16.6876 70.8331 17.2732 69.5277 18.281L68.2722 15.4594C69.7278 14.2731 72.2751 13.3971 74.6951 13.2693C79.9462 12.9773 82.5008 16.0945 82.7009 19.5732C82.8756 22.6868 81.2671 25.0265 79.222 27.7605C77.3443 30.2536 76.7293 32.3087 76.9949 34.6338L77.1078 35.8238L73.5415 36.0136ZM72.8938 42.4781C72.7992 40.7844 73.8727 39.5287 75.4702 39.4411C77.0677 39.3535 78.2322 40.4778 78.3268 42.1751C78.4142 43.7775 77.4353 45.0697 75.7468 45.1646C74.1347 45.2558 72.9702 44.0805 72.8792 42.4781H72.8938Z" fill="#DBDBDB"/>
<path d="M157.013 86.7912L154.277 88.3754L154.761 89.2149C154.833 89.3354 154.869 89.4742 154.864 89.6147C154.86 89.7552 154.815 89.8915 154.735 90.007C154.651 90.1384 154.571 90.2735 154.499 90.4158C154.439 90.5418 154.344 90.6479 154.226 90.7216C154.108 90.7954 153.972 90.8336 153.833 90.832H152.872V94.004H153.84C153.979 94.0023 154.116 94.0406 154.234 94.1143C154.352 94.1881 154.446 94.2942 154.506 94.4201C154.579 94.5624 154.659 94.6975 154.742 94.8289C154.822 94.9445 154.867 95.0807 154.872 95.2212C154.876 95.3617 154.84 95.5005 154.768 95.621L154.284 96.4605L157.02 98.0447L157.508 97.2015C157.579 97.0819 157.681 96.9844 157.804 96.92C157.927 96.8555 158.065 96.8266 158.203 96.8365H158.669C158.807 96.827 158.945 96.8561 159.068 96.9205C159.191 96.985 159.293 97.0822 159.364 97.2015L159.852 98.0484L162.584 96.4642L162.1 95.621C162.032 95.4999 161.998 95.3619 162.003 95.2226C162.008 95.0833 162.052 94.9482 162.13 94.8326C162.213 94.7011 162.293 94.5624 162.366 94.4237C162.426 94.2978 162.52 94.1917 162.638 94.118C162.756 94.0442 162.893 94.0059 163.032 94.0076H164V90.8356H163.025C162.886 90.8373 162.749 90.799 162.631 90.7253C162.513 90.6515 162.419 90.5454 162.359 90.4195C162.286 90.2808 162.206 90.1421 162.122 90.0107C162.045 89.895 162.001 89.7599 161.996 89.6206C161.991 89.4813 162.024 89.3433 162.093 89.2222L162.577 88.379L159.844 86.7949L159.357 87.6271C159.286 87.7467 159.184 87.8442 159.061 87.9087C158.938 87.9731 158.8 88.002 158.662 87.9921H158.429H158.196C158.057 88.0015 157.919 87.9724 157.795 87.908C157.672 87.8436 157.569 87.7464 157.497 87.6271L157.013 86.7912ZM158.429 89.8209C158.941 89.8201 159.443 89.972 159.87 90.2573C160.296 90.5426 160.629 90.9485 160.825 91.4235C161.022 91.8986 161.074 92.4214 160.974 92.9259C160.874 93.4304 160.627 93.8938 160.264 94.2575C159.902 94.6212 159.44 94.8688 158.937 94.969C158.434 95.0691 157.913 95.0173 157.439 94.8202C156.966 94.623 156.561 94.2893 156.277 93.8614C155.992 93.4334 155.841 92.9305 155.841 92.4161C155.841 92.075 155.907 91.7371 156.037 91.4218C156.167 91.1066 156.358 90.82 156.598 90.5786C156.838 90.3373 157.124 90.1458 157.438 90.0151C157.752 89.8845 158.089 89.8172 158.429 89.8172V89.8209Z" fill="#CCCDDC"/>
<path d="M127.151 138.018H16.2773L32.3072 46.8181H143.181L127.151 138.018Z" fill="#9D9FBD"/>
<path d="M70.2545 37.3714H33.9699L32.3068 46.8181H71.1388L70.2545 37.3714Z" fill="#9D9FBD"/>
<g opacity="0.1">
<path opacity="0.1" d="M127.151 138.018H16.2773L32.3072 46.8181H143.181L127.151 138.018Z" fill="black"/>
<path opacity="0.1" d="M70.2545 37.3714H33.9699L32.3068 46.8181H71.1388L70.2545 37.3714Z" fill="black"/>
</g>
<path d="M30.0548 41.2259C29.8122 40.1814 29.8122 39.0948 30.0548 38.0503C30.2975 39.0948 30.2975 40.1814 30.0548 41.2259Z" fill="#263238"/>
<path d="M26.8302 42.1604C26.4596 41.775 26.1404 41.3431 25.8804 40.8755C25.6076 40.4177 25.3937 39.9271 25.2435 39.4154C25.6151 39.7986 25.9345 40.2294 26.1933 40.6966C26.4654 41.1561 26.6794 41.6478 26.8302 42.1604Z" fill="#263238"/>
<path d="M24.5013 44.5878C23.4787 44.276 22.5413 43.7327 21.7611 43C22.2713 43.1487 22.7604 43.3622 23.2167 43.6351C23.6829 43.8976 24.1145 44.2177 24.5013 44.5878Z" fill="#263238"/>
<path d="M23.6862 47.8583C22.6448 48.1017 21.5616 48.1017 20.5203 47.8583C21.5616 47.615 22.6448 47.615 23.6862 47.8583Z" fill="#263238"/>
<path d="M24.6334 51.0924C24.2476 51.4621 23.8173 51.7821 23.3525 52.0451C22.8962 52.318 22.407 52.5315 21.8969 52.6802C22.2811 52.3085 22.7116 51.9883 23.1778 51.7275C23.6334 51.4532 24.1227 51.2397 24.6334 51.0924Z" fill="#263238"/>
<path d="M27.0487 53.4249C26.7389 54.4521 26.1973 55.3939 25.4658 56.1771C25.6139 55.6648 25.828 55.1739 26.1026 54.7171C26.362 54.2478 26.6799 53.8136 27.0487 53.4249Z" fill="#263238"/>
<path d="M30.3103 54.2316C30.4372 54.7511 30.4983 55.2846 30.4923 55.8194C30.5001 56.3544 30.4389 56.8881 30.3103 57.4073C30.1799 56.8884 30.1187 56.3544 30.1284 55.8194C30.1223 55.2846 30.1834 54.7511 30.3103 54.2316Z" fill="#263238"/>
<path d="M33.5344 53.3154C33.905 53.7008 34.2242 54.1327 34.4842 54.6003C34.7576 55.0573 34.9705 55.5481 35.1174 56.0603C34.3859 55.2771 33.8442 54.3353 33.5344 53.3081V53.3154Z" fill="#263238"/>
<path d="M35.8596 50.8698C36.3702 51.0171 36.8595 51.2306 37.3152 51.5049C37.7813 51.7657 38.2119 52.0859 38.5961 52.4576C38.0854 52.3102 37.5961 52.0967 37.1405 51.8225C36.6743 51.5617 36.2438 51.2414 35.8596 50.8698Z" fill="#263238"/>
<path d="M36.6632 47.5992C37.7058 47.3559 38.7902 47.3559 39.8328 47.5992C38.7902 47.8425 37.7058 47.8425 36.6632 47.5992Z" fill="#263238"/>
<path d="M35.7325 44.3651C36.1177 43.9957 36.5481 43.6768 37.0134 43.416C37.4682 43.1392 37.9577 42.9243 38.469 42.7773C37.6882 43.511 36.7493 44.0543 35.7252 44.3651H35.7325Z" fill="#263238"/>
<path d="M33.3122 42.0327C33.462 41.5215 33.6747 41.031 33.9454 40.5726C34.2054 40.105 34.5246 39.6731 34.8952 39.2877C34.7483 39.8 34.5354 40.2908 34.262 40.7478C34.002 41.2154 33.6827 41.6473 33.3122 42.0327Z" fill="#263238"/>
<path d="M126.988 138.018H15.8774L0.0985718 50.1288H111.212L126.988 138.018Z" fill="#9D9FBD"/>
<path d="M38.6027 103.856C41.1531 103.856 43.2206 101.782 43.2206 99.2237C43.2206 96.6654 41.1531 94.5916 38.6027 94.5916C36.0523 94.5916 33.9848 96.6654 33.9848 99.2237C33.9848 101.782 36.0523 103.856 38.6027 103.856Z" fill="white"/>
<path d="M75.109 103.856C77.6594 103.856 79.7269 101.782 79.7269 99.2237C79.7269 96.6654 77.6594 94.5916 75.109 94.5916C72.5586 94.5916 70.4911 96.6654 70.4911 99.2237C70.4911 101.782 72.5586 103.856 75.109 103.856Z" fill="white"/>
<path d="M63.4902 104.597L63.2355 104.111C63.2137 104.067 60.8265 99.6434 56.0266 99.6434C51.6598 99.6434 50.5681 103.808 50.539 103.987L50.408 104.516L49.349 104.261L49.4764 103.728C49.4764 103.677 50.7791 98.5484 56.0266 98.5484C61.4851 98.5484 64.0943 103.396 64.2035 103.604L64.4582 104.086L63.4902 104.597Z" fill="white"/>
<path d="M119.651 98.8696L119.575 98.5046C119.811 98.4535 120.044 98.3988 120.277 98.3367L120.368 98.7017C120.121 98.7638 119.891 98.8185 119.651 98.8696Z" fill="#263238"/>
<path d="M121.777 98.282L121.66 97.9388C122.115 97.7819 122.57 97.6103 123.01 97.4242L123.152 97.76C122.705 97.9498 122.242 98.125 121.777 98.282ZM124.488 97.1175L124.324 96.7963C124.75 96.5737 125.176 96.3327 125.579 96.0663L125.769 96.3766C125.354 96.6649 124.921 96.9095 124.488 97.1175ZM126.991 95.5735L126.777 95.2778C127.17 94.9895 127.548 94.6865 127.905 94.3763L128.145 94.65C127.763 94.9822 127.399 95.2924 126.988 95.5881L126.991 95.5735ZM129.211 93.6316L128.946 93.3798C129.28 93.0147 129.597 92.6497 129.888 92.2847L130.176 92.5074C129.873 92.9089 129.55 93.2849 129.218 93.6462L129.211 93.6316ZM131.013 91.2955L130.703 91.102C130.955 90.6943 131.178 90.2699 131.373 89.8318L131.708 89.9814C131.502 90.4382 131.268 90.8819 131.009 91.3101L131.013 91.2955ZM132.217 88.5871L131.853 88.4849C131.986 88.0269 132.085 87.5596 132.148 87.0868L132.512 87.1343C132.452 87.6306 132.352 88.1213 132.213 88.6017L132.217 88.5871ZM132.621 85.6669H132.257V85.5611C132.257 85.1194 132.232 84.6704 132.188 84.2288L132.552 84.1922C132.6 84.6469 132.624 85.1038 132.625 85.5611L132.621 85.6669ZM131.966 82.8088C131.868 82.3382 131.747 81.8728 131.602 81.4145L131.966 81.305C132.115 81.7795 132.242 82.2613 132.33 82.7322L131.966 82.8088ZM131.103 80.0602C130.929 79.6295 130.74 79.1879 130.507 78.7425L130.834 78.5783C131.056 79.0309 131.26 79.4835 131.438 79.9215L131.103 80.0602ZM129.83 77.4577C129.604 77.0598 129.357 76.64 129.102 76.2093L129.411 76.0158C129.677 76.4502 129.928 76.8736 130.139 77.2788L129.83 77.4577ZM128.309 74.9792C128.043 74.5777 127.774 74.1725 127.497 73.7673L127.799 73.5629C128.076 73.9681 128.345 74.3733 128.611 74.7821L128.309 74.9792ZM126.671 72.5628C126.398 72.1613 126.122 71.7561 125.852 71.3546L126.154 71.1502C126.424 71.5517 126.697 71.9568 126.97 72.3547L126.671 72.5628ZM125.045 70.1318C124.779 69.7229 124.521 69.3068 124.266 68.8907L124.575 68.7009C124.83 69.117 125.088 69.5258 125.35 69.9346L125.045 70.1318ZM123.527 67.6241C123.28 67.1824 123.05 66.7444 122.843 66.3246L123.17 66.1604C123.374 66.5765 123.603 67.0072 123.844 67.4452L123.527 67.6241ZM122.235 64.9959C122.042 64.5397 121.871 64.0761 121.711 63.6235L122.075 63.5067C122.228 63.9483 122.399 64.4046 122.588 64.8536L122.235 64.9959ZM121.289 62.2109C121.169 61.7363 121.063 61.2509 120.983 60.7508L121.347 60.6924C121.427 61.1596 121.526 61.6341 121.646 62.1014L121.289 62.2109ZM120.801 59.2907C120.765 58.8417 120.747 58.3891 120.747 57.9365V57.816H121.111V57.9328C121.111 58.3745 121.111 58.8198 121.165 59.2579L120.801 59.2907ZM121.165 56.3706L120.801 56.3341C120.801 56.2355 120.82 56.1333 120.831 56.0275C120.874 55.6369 120.929 55.2463 120.994 54.874L121.358 54.9361C121.296 55.3011 121.242 55.6843 121.198 56.0676C121.213 56.1808 121.213 56.2793 121.184 56.3815L121.165 56.3706ZM121.671 53.5307L121.307 53.4322C121.442 52.9504 121.598 52.4795 121.773 52.0305L122.111 52.1619C121.946 52.6139 121.805 53.0745 121.689 53.5417L121.671 53.5307ZM139.804 51.4027C139.601 51.4027 139.39 51.3735 139.182 51.3443C138.898 51.3041 138.614 51.2567 138.334 51.2019L138.407 50.8369C138.676 50.888 138.956 50.9355 139.233 50.9756C139.43 51.0012 139.63 51.0194 139.823 51.0304L139.804 51.4027ZM141.3 51.2895L141.224 50.9245C141.68 50.8299 142.118 50.6597 142.519 50.4208L142.708 50.731C142.28 50.9971 141.81 51.1895 141.318 51.3005L141.3 51.2895ZM122.719 50.8551L122.395 50.6836C122.627 50.2483 122.883 49.8266 123.163 49.4206L123.462 49.6287C123.196 50.0262 122.954 50.4394 122.737 50.8661L122.719 50.8551ZM136.911 50.8332C136.442 50.6838 135.98 50.5095 135.529 50.3113L135.678 49.9755C136.115 50.1704 136.564 50.3398 137.021 50.4828L136.911 50.8332ZM143.826 49.6944L143.523 49.49C143.783 49.1129 143.936 48.6729 143.967 48.2161L144.331 48.2416C144.3 48.7653 144.129 49.2709 143.836 49.7053L143.826 49.6944ZM134.218 49.6396C133.793 49.3913 133.381 49.1196 132.985 48.8256L133.2 48.5336C133.585 48.8187 133.986 49.0819 134.4 49.3221L134.218 49.6396ZM124.357 48.5008L124.087 48.2562C124.417 47.8886 124.768 47.5412 125.139 47.2159L125.379 47.4897C125.022 47.8101 124.685 48.1514 124.368 48.5117L124.357 48.5008ZM131.849 47.8839C131.487 47.549 131.143 47.1944 130.82 46.8217L131.093 46.5808C131.408 46.9428 131.742 47.2876 132.093 47.6138L131.849 47.8839ZM143.695 46.8947C143.486 46.4776 143.198 46.1055 142.847 45.7996L143.087 45.5259C143.473 45.8614 143.791 46.2693 144.022 46.7268L143.695 46.8947ZM126.511 46.6063L126.304 46.307C126.711 46.0282 127.132 45.7711 127.566 45.5368L127.737 45.8581C127.319 46.0898 126.914 46.3432 126.522 46.6173L126.511 46.6063ZM129.91 45.6573C129.772 45.4602 129.637 45.2594 129.51 45.0514L129.037 45.2375L128.898 44.9017L129.317 44.7338C129.251 44.6243 129.186 44.5148 129.124 44.4053L129.44 44.2264C129.513 44.3542 129.586 44.4819 129.662 44.5914C129.866 44.5184 130.074 44.4491 130.285 44.3834L130.39 44.7484C130.212 44.8031 130.026 44.8615 129.859 44.9236C129.972 45.1025 130.088 45.2886 130.223 45.4456L129.91 45.6573ZM141.675 45.0295C141.323 44.8534 140.958 44.7046 140.583 44.5841L140.343 44.5075L140.448 44.1425L140.696 44.2228C141.086 44.3474 141.465 44.5024 141.831 44.6863L141.675 45.0295ZM131.784 44.3761L131.708 44.0111C132.177 43.9052 132.665 43.8176 133.163 43.7482L133.218 44.1133C132.737 44.1899 132.261 44.2812 131.795 44.387L131.784 44.3761ZM138.953 44.179C138.498 44.0987 138.018 44.0366 137.526 43.9928L137.555 43.6278C138.061 43.6716 138.553 43.7336 139.011 43.8176L138.953 44.179ZM134.641 43.9673L134.615 43.6022C135.048 43.5767 135.481 43.5621 135.911 43.5621H136.089V43.9271H135.914C135.503 43.9381 135.074 43.949 134.652 43.9782L134.641 43.9673ZM128.491 43.0949C128.294 42.6495 128.127 42.186 127.963 41.7151L128.327 41.6019C128.48 42.0619 128.651 42.5145 128.84 42.9489L128.491 43.0949ZM127.57 40.2915C127.461 39.8207 127.37 39.3315 127.301 38.8315L127.665 38.7803C127.734 39.2622 127.821 39.7403 127.927 40.2039L127.57 40.2915ZM127.162 37.3714C127.144 37.0429 127.133 36.707 127.133 36.3712C127.133 36.2143 127.133 36.0537 127.133 35.8967H127.497C127.497 36.0537 127.497 36.207 127.497 36.3639C127.497 36.6924 127.497 37.0246 127.523 37.3422L127.162 37.3714ZM127.595 34.4512L127.232 34.4147C127.283 33.9329 127.352 33.4401 127.435 32.9547L127.799 33.0167C127.701 33.5022 127.632 33.9694 127.585 34.4585L127.595 34.4512ZM128.094 31.6004L127.73 31.5128C127.847 31.042 127.981 30.5674 128.13 30.0929L128.494 30.2061C128.331 30.6842 128.196 31.1478 128.083 31.6077L128.094 31.6004ZM128.967 28.8373L128.629 28.7058C128.807 28.2496 128.993 27.7933 129.215 27.3516L129.542 27.5122C129.324 27.9503 129.131 28.3956 128.956 28.8592L128.967 28.8373ZM130.219 26.2347L129.903 26.0485C130.15 25.6287 130.416 25.209 130.692 24.8075L130.991 25.0155C130.707 25.417 130.448 25.8259 130.208 26.242L130.219 26.2347ZM131.86 23.8584L131.577 23.6284C131.882 23.2634 132.21 22.8765 132.548 22.5334L132.81 22.7853C132.468 23.1284 132.148 23.4934 131.849 23.8657L131.86 23.8584ZM133.84 21.7559L133.596 21.4858C133.96 21.1609 134.324 20.8397 134.713 20.5294L134.939 20.8178C134.55 21.1281 134.178 21.4456 133.829 21.7632L133.84 21.7559ZM136.1 19.9527L135.892 19.6497C136.289 19.376 136.704 19.1059 137.126 18.8504L137.312 19.1606C136.89 19.4198 136.497 19.6863 136.089 19.96L136.1 19.9527ZM138.571 18.4452L138.4 18.124C138.829 17.894 139.273 17.675 139.717 17.4706L139.87 17.8028C139.408 18.0108 138.982 18.2298 138.56 18.4525L138.571 18.4452ZM141.202 17.2333L141.067 16.8902C141.526 16.7114 141.988 16.5252 142.446 16.3901L142.563 16.7552C142.101 16.8939 141.642 17.0618 141.191 17.2406L141.202 17.2333Z" fill="#263238"/>
<path d="M144.007 16.3098L143.916 15.9448C144.367 15.828 144.644 15.7769 144.644 15.7769L144.709 16.1419C144.709 16.1419 144.447 16.1967 144.007 16.3098Z" fill="#263238"/>
<path d="M150.441 13.9518C149.513 11.0682 143.298 12.1048 144.51 15.8754C145.722 19.6461 151.369 16.8391 150.441 13.9518Z" fill="#263238"/>
<path d="M141.129 12.7984C141.176 11.5318 142.93 10.5572 145.412 11.0061C147.894 11.4551 150.226 13.1342 150.226 13.1342C150.226 13.1342 147.777 14.6235 145.27 14.8972C142.763 15.171 141.081 14.0613 141.129 12.7984Z" fill="#EBEBEB"/>
<path d="M150.226 13.1269C148.937 13.1269 147.653 13.0904 146.368 13.0502C145.084 13.0101 143.796 12.9444 142.511 12.8421C143.799 12.8421 145.087 12.875 146.372 12.9151C147.657 12.9553 148.945 13.021 150.226 13.1269Z" fill="#263238"/>
<path d="M143.622 11.6704C144.353 12.0214 145.043 12.4536 145.678 12.9589C145.312 12.7867 144.957 12.5916 144.616 12.3749C144.271 12.1597 143.939 11.9245 143.622 11.6704Z" fill="#263238"/>
<path d="M146.995 13.0064C146.337 13.5416 145.623 14.0042 144.866 14.3862C145.528 13.8504 146.245 13.3878 147.006 13.0064H146.995Z" fill="#263238"/>
<path d="M147.37 12.2946C147.737 12.4715 148.059 12.7314 148.309 13.0538C148.125 12.9669 147.953 12.8578 147.796 12.729C147.638 12.6009 147.495 12.4552 147.37 12.2946Z" fill="#263238"/>
<path d="M143.495 20.2994C144.27 21.2996 146.26 21.0587 148.011 19.2409C149.761 17.4231 150.689 14.6891 150.689 14.6891C150.689 14.6891 147.821 14.9081 145.634 16.1492C143.447 17.3902 142.716 19.2956 143.495 20.2994Z" fill="#EBEBEB"/>
<path d="M150.688 14.6891C149.64 15.4191 148.621 16.2295 147.598 17.0143C146.576 17.7991 145.575 18.6094 144.596 19.4453C145.644 18.7153 146.663 17.9086 147.682 17.1238C148.701 16.339 149.694 15.5287 150.688 14.6891Z" fill="#263238"/>
<path d="M146.169 19.7337C146.364 19.3791 146.538 19.0135 146.69 18.6387C146.845 18.2628 146.976 17.8775 147.083 17.4852C146.888 17.8395 146.714 18.2051 146.562 18.5802C146.409 18.9567 146.278 19.3419 146.169 19.7337Z" fill="#263238"/>
<path d="M148.141 16.6821C147.289 16.6365 146.436 16.6817 145.594 16.8172C146.018 16.8427 146.443 16.8427 146.867 16.8172C147.294 16.7963 147.719 16.7512 148.141 16.6821Z" fill="#263238"/>
<path d="M148.844 17.0435C148.941 16.8632 149.016 16.6721 149.069 16.4741C149.123 16.2775 149.155 16.0754 149.164 15.8718C148.97 16.2331 148.861 16.6337 148.844 17.0435Z" fill="#263238"/>
<path d="M150.44 13.9518C150.235 14.0188 150.014 14.023 149.806 13.9641C149.598 13.9051 149.413 13.7856 149.272 13.6206C149.132 13.4557 149.044 13.2527 149.019 13.0374C148.994 12.8221 149.033 12.6042 149.132 12.4113C149.23 12.2184 149.383 12.0591 149.572 11.9536C149.761 11.8482 149.977 11.8013 150.192 11.8189C150.407 11.8365 150.613 11.9178 150.782 12.0525C150.951 12.1873 151.077 12.3693 151.143 12.5757C151.231 12.8516 151.207 13.1514 151.075 13.4093C150.943 13.6673 150.715 13.8624 150.44 13.9518Z" fill="#455A64"/>
<path d="M151.11 16.036C150.904 16.1027 150.684 16.1068 150.476 16.0478C150.268 15.9888 150.083 15.8693 149.943 15.7045C149.803 15.5397 149.715 15.3369 149.689 15.1219C149.664 14.9068 149.703 14.6891 149.801 14.4962C149.9 14.3033 150.052 14.144 150.241 14.0383C150.429 13.9327 150.645 13.8854 150.86 13.9025C151.075 13.9197 151.281 14.0004 151.45 14.1346C151.619 14.2687 151.746 14.4503 151.812 14.6563C151.856 14.7931 151.873 14.9374 151.862 15.0808C151.851 15.2242 151.811 15.364 151.746 15.4921C151.681 15.6203 151.591 15.7343 151.482 15.8276C151.373 15.9209 151.246 15.9917 151.11 16.036Z" fill="#455A64"/>
<path d="M31.8057 15.1053C31.6313 16.7819 30.9959 18.3769 29.9704 19.7123C28.9449 21.0478 27.5696 22.0711 25.998 22.6681C24.4264 23.2651 22.7204 23.4124 21.0702 23.0934C19.42 22.7744 17.8907 22.0018 16.6528 20.8616L12.115 21.5296L14.3857 17.5947C13.8665 16.3144 13.6449 14.9322 13.7379 13.5531C13.8309 12.174 14.236 10.8343 14.9225 9.63577C15.6089 8.43724 16.5586 7.41138 17.6995 6.63613C18.8404 5.86088 20.1424 5.35662 21.5066 5.16167C22.8708 4.96671 24.2614 5.08618 25.5727 5.51099C26.8841 5.93581 28.0816 6.65481 29.0744 7.61337C30.0673 8.57192 30.8292 9.74483 31.3025 11.043C31.7758 12.3412 31.9479 13.7304 31.8057 15.1053Z" fill="#CCCDDC"/>
<path d="M31.806 15.1054C31.6353 16.7811 31.0055 18.3767 29.9865 19.7155C29.4885 20.3927 28.8881 20.9875 28.207 21.4786C27.5407 21.988 26.8055 22.3998 26.0236 22.7014C25.2411 23.0104 24.4191 23.2071 23.5818 23.2854C23.1632 23.3231 22.7425 23.3316 22.3227 23.311C21.9014 23.3001 21.4816 23.2562 21.0672 23.1796C19.3948 22.8709 17.8411 22.1012 16.5803 20.9566L16.6858 20.9894L12.1552 21.6866L11.8241 21.7377L11.9915 21.4457L14.2477 17.5035V17.6605C13.7153 16.3565 13.4889 14.9472 13.5861 13.5414C13.6833 12.1357 14.1014 10.7712 14.8081 9.55343C15.5139 8.33945 16.4843 7.30125 17.6465 6.51647C18.8069 5.74212 20.127 5.24134 21.5079 5.05169C22.8887 4.86204 24.2944 4.98844 25.6196 5.42142C26.9308 5.86885 28.1256 6.60467 29.1167 7.57503C30.1056 8.54296 30.8618 9.72412 31.3277 11.0289C31.7937 12.3336 31.9572 13.7277 31.806 15.1054ZM31.806 15.1054C31.953 13.7345 31.784 12.3481 31.3121 11.0532C30.8401 9.75828 30.0777 8.58948 29.0839 7.63704C28.0901 6.68459 26.8913 5.97398 25.5802 5.56008C24.269 5.14617 22.8806 5.04003 21.5221 5.24986C20.1772 5.44954 18.896 5.95658 17.7775 6.73183C16.6686 7.51318 15.7423 8.52701 15.0628 9.70308C14.3938 10.8818 13.9994 12.1971 13.9093 13.5504C13.8206 14.9128 14.0396 16.2778 14.5497 17.5437L14.5825 17.624L14.5388 17.7006L12.2535 21.6282L12.0934 21.3873L16.6349 20.7485H16.6968L16.7404 20.7887C17.9544 21.9221 19.4588 22.6943 21.0854 23.0189C21.4907 23.1018 21.9021 23.1518 22.3154 23.1686C22.7285 23.1978 23.1432 23.1978 23.5563 23.1686C24.3848 23.1016 25.2003 22.9211 25.9799 22.632C26.7613 22.3467 27.4969 21.9482 28.1633 21.4494C28.8416 20.9623 29.4428 20.3753 29.9464 19.7082C30.9786 18.3759 31.6223 16.7826 31.806 15.1054Z" fill="#263238"/>
<path d="M18.3518 18.4015C18.3448 18.2806 18.3627 18.1596 18.4043 18.046C18.4458 17.9324 18.5103 17.8285 18.5935 17.7409C18.6768 17.6533 18.7771 17.5837 18.8883 17.5366C18.9994 17.4895 19.1191 17.4658 19.2397 17.467C19.4868 17.467 19.7238 17.5655 19.8985 17.7407C20.0732 17.916 20.1713 18.1537 20.1713 18.4015C20.1713 18.6493 20.0732 18.887 19.8985 19.0622C19.7238 19.2375 19.4868 19.3359 19.2397 19.3359C19.1191 19.3371 18.9994 19.3135 18.8883 19.2663C18.7771 19.2192 18.6768 19.1497 18.5935 19.0621C18.5103 18.9745 18.4458 18.8706 18.4043 18.757C18.3627 18.6433 18.3448 18.5223 18.3518 18.4015ZM18.7157 16.2442L18.5047 9.00227H19.9603L19.7492 16.2442H18.7157Z" fill="#4E4E4E"/>
<path d="M21.8133 18.4015C21.8063 18.281 21.8241 18.1603 21.8654 18.0469C21.9068 17.9335 21.9709 17.8298 22.0538 17.7422C22.1366 17.6547 22.2365 17.5851 22.3472 17.5377C22.458 17.4904 22.5772 17.4663 22.6976 17.467C22.9447 17.467 23.1816 17.5655 23.3563 17.7407C23.531 17.916 23.6292 18.1537 23.6292 18.4015C23.6292 18.6493 23.531 18.887 23.3563 19.0622C23.1816 19.2375 22.9447 19.3359 22.6976 19.3359C22.5772 19.3366 22.458 19.3126 22.3472 19.2652C22.2365 19.2179 22.1366 19.1483 22.0538 19.0607C21.9709 18.9732 21.9068 18.8695 21.8654 18.7561C21.8241 18.6427 21.8063 18.522 21.8133 18.4015ZM22.1772 16.2442L21.9771 9.00227H23.4327L23.2216 16.2442H22.1772Z" fill="#4E4E4E"/>
<path d="M25.2705 18.4015C25.2635 18.2806 25.2814 18.1596 25.323 18.046C25.3645 17.9324 25.429 17.8285 25.5122 17.7409C25.5955 17.6533 25.6958 17.5837 25.807 17.5366C25.9181 17.4895 26.0378 17.4658 26.1584 17.467C26.4055 17.467 26.6425 17.5655 26.8172 17.7407C26.9919 17.916 27.09 18.1537 27.09 18.4015C27.09 18.6493 26.9919 18.887 26.8172 19.0622C26.6425 19.2375 26.4055 19.3359 26.1584 19.3359C26.0378 19.3371 25.9181 19.3135 25.807 19.2663C25.6958 19.2192 25.5955 19.1497 25.5122 19.0621C25.429 18.9745 25.3645 18.8706 25.323 18.757C25.2814 18.6433 25.2635 18.5223 25.2705 18.4015ZM25.6344 16.2442L25.4234 9.00227H26.879L26.6716 16.2442H25.6344Z" fill="#4E4E4E"/>
</svg>
