<svg width="207" height="153" viewBox="0 0 207 153" fill="none" xmlns="http://www.w3.org/2000/svg">
<path d="M46.3369 42.71L7.81848 68.4763L45.759 125.194L84.2774 99.4276L46.3369 42.71Z" fill="#CCCDDC"/>
<path d="M64.3726 96.7448L63.9366 99.45L44.7874 96.6899L45.2233 93.9847L64.3726 96.7448Z" fill="white"/>
<path d="M54.7283 87.0947L57.4747 87.4895L54.4296 106.343L51.6798 105.945L54.7283 87.0947Z" fill="white"/>
<path d="M37.1069 63.1324C37.1344 63.1702 33.2757 65.8033 28.4867 69.0028C23.6976 72.2024 19.7943 74.7703 19.7669 74.7291C19.7394 74.6879 23.5981 72.0582 28.3871 68.8552C33.1761 65.6522 37.0623 63.0912 37.1069 63.1324Z" fill="white"/>
<path d="M51.2579 59.5759C51.2854 59.6171 44.8657 63.9564 36.9218 69.2706C28.9778 74.5849 22.5032 78.859 22.4826 78.8212C22.462 78.7835 28.868 74.4373 36.8222 69.123C44.7765 63.8087 51.2305 59.5347 51.2579 59.5759Z" fill="white"/>
<path d="M54.0973 63.8191C54.1248 63.8602 47.7051 68.203 39.7611 73.5173C31.8172 78.8315 25.3425 83.1056 25.3219 83.0644C25.3014 83.0232 31.7142 78.6839 39.6616 73.3662C47.6089 68.0485 54.0698 63.7779 54.0973 63.8191Z" fill="white"/>
<path d="M56.9372 68.0656C56.9647 68.1068 50.545 72.4496 42.6011 77.7604C34.6571 83.0712 28.1825 87.3522 28.1825 87.311C28.1825 87.2698 34.5713 82.927 42.5187 77.6128C50.466 72.2985 56.9098 68.0244 56.9372 68.0656Z" fill="white"/>
<path d="M59.7657 72.3122C59.7932 72.3534 53.3735 76.6927 45.4295 82.007C37.4856 87.3212 31.011 91.5953 30.9938 91.5541C30.9766 91.5129 37.3929 87.1736 45.3471 81.8594C53.3014 76.5451 59.7657 72.271 59.7657 72.3122Z" fill="white"/>
<path d="M175.137 80.7143L142.788 102.354L174.651 149.986L207 128.347L175.137 80.7143Z" fill="#CCCDDC"/>
<path d="M190.289 126.104L189.921 128.376L173.838 126.059L174.209 123.787L190.289 126.104Z" fill="white"/>
<path d="M182.189 117.998L184.496 118.331L181.939 134.164L179.628 133.831L182.189 117.998Z" fill="white"/>
<path d="M167.376 97.8916C167.403 97.9328 164.166 100.147 160.142 102.835C156.119 105.523 152.837 107.672 152.809 107.641C152.782 107.61 156.023 105.389 160.043 102.698C164.063 100.006 167.348 97.8332 167.376 97.8916Z" fill="white"/>
<path d="M179.273 94.8876C179.3 94.9288 173.914 98.5815 167.257 103.041C160.601 107.5 155.152 111.091 155.125 111.05C155.098 111.009 160.484 107.356 167.14 102.893C173.797 98.4304 179.235 94.8464 179.273 94.8876Z" fill="white"/>
<path d="M181.656 98.451C181.683 98.4922 176.297 102.145 169.64 106.608C162.984 111.071 157.536 114.655 157.508 114.614C157.481 114.572 162.85 110.937 169.524 106.474C176.197 102.011 181.635 98.4133 181.656 98.451Z" fill="white"/>
<path d="M184.041 102.011C184.068 102.052 178.679 105.705 172.025 110.168C165.372 114.631 159.921 118.215 159.893 118.174C159.866 118.132 165.252 114.483 171.909 110.017C178.565 105.551 184.017 101.977 184.041 102.011Z" fill="white"/>
<path d="M186.443 105.585C186.471 105.626 181.085 109.275 174.428 113.738C167.771 118.201 162.323 121.785 162.296 121.747C162.268 121.71 167.655 118.053 174.311 113.591C180.968 109.128 186.399 105.544 186.443 105.585Z" fill="white"/>
<path d="M123.959 44.7967L88.6619 25.918L60.8636 77.8921L96.1609 96.7708L123.959 44.7967Z" fill="#CCCDDC"/>
<path d="M90.1204 80.5102L87.8821 81.2757L82.197 65.5629L84.4388 64.7939L90.1204 80.5102Z" fill="white"/>
<path d="M93.5532 69.2363L94.3702 71.4918L78.7638 76.8369L77.9468 74.5814L93.5532 69.2363Z" fill="white"/>
<path d="M104.642 46.0533C104.615 46.1047 101.038 44.2441 96.6469 41.8993C92.2561 39.5546 88.7235 37.6081 88.751 37.5566C88.7785 37.5051 92.3591 39.3658 96.7499 41.7105C101.141 44.0553 104.67 45.9983 104.642 46.0533Z" fill="white"/>
<path d="M113.115 55.4013C113.088 55.4528 107.162 52.3356 99.8809 48.4426C92.5995 44.5496 86.7223 41.3501 86.7497 41.2986C86.7772 41.2471 92.6991 44.3608 99.9805 48.2572C107.262 52.1537 113.143 55.3498 113.115 55.4013Z" fill="white"/>
<path d="M111.032 59.2908C111.005 59.3423 105.08 56.2286 97.7983 52.3322C90.5169 48.4357 84.6396 45.2396 84.6671 45.1881C84.6946 45.1366 90.6165 48.2538 97.8978 52.1468C105.179 56.0398 111.06 59.2394 111.032 59.2908Z" fill="white"/>
<path d="M108.954 63.1805C108.926 63.232 103.001 60.1182 95.7196 56.2252C88.4382 52.3322 82.5609 49.143 82.5884 49.0812C82.6158 49.0194 88.5377 52.1434 95.8191 56.0364C103.1 59.9294 108.981 63.129 108.954 63.1805Z" fill="white"/>
<path d="M106.873 67.07C106.846 67.1215 100.92 64.0078 93.6388 60.1148C86.3574 56.2218 80.4767 53.0222 80.5076 52.9707C80.5385 52.9192 86.4569 56.0329 93.7383 59.926C101.02 63.819 106.9 67.0185 106.873 67.07Z" fill="white"/>
<path opacity="0.2" d="M107.055 0.737793H106.169V15.8361H107.055V0.737793Z" fill="white"/>
<path d="M198.69 151.731C198.69 151.779 154.319 151.82 99.5937 151.82C44.8684 151.82 0.490112 151.789 0.490112 151.731C0.490112 151.673 44.8547 151.642 99.5937 151.642C154.333 151.642 198.69 151.68 198.69 151.731Z" fill="#263238"/>
<path d="M73.4987 81.2551L61.3459 143.667L59.7667 151.837L140.785 151.446C144.424 151.429 147.651 148.198 148.815 143.399L163.186 84.4787C164.075 80.8363 162.125 77.0463 159.365 77.0497L77.3436 77.1355C75.5585 77.1321 73.9587 78.8211 73.4987 81.2551Z" fill="#9D9FBD"/>
<g opacity="0.5">
<path opacity="0.5" d="M73.4987 81.2551L61.3459 143.667L59.7667 151.837L140.785 151.446C144.424 151.429 147.651 148.198 148.815 143.399L163.186 84.4787C164.075 80.8363 162.125 77.0463 159.365 77.0497L77.3436 77.1355C75.5585 77.1321 73.9587 78.8211 73.4987 81.2551Z" fill="white"/>
</g>
<path d="M133.023 139.431L124.441 70.2867C124.098 67.4545 121.835 65.3398 119.168 65.3501L100.355 65.4084C99.656 65.4163 98.9658 65.5665 98.3266 65.8498C97.6874 66.1331 97.1126 66.5436 96.6372 67.0563L87.7114 76.5554L35.3926 76.8369C32.1965 76.854 29.7385 79.8819 30.1607 83.2806L38.1287 147.186C38.472 150.015 40.7343 152.126 43.3949 152.122L134.592 151.94C144.747 152.15 145.719 149.153 145.719 149.153C134.06 151.731 133.023 139.448 133.023 139.431Z" fill="#9D9FBD"/>
<g opacity="0.5">
<path opacity="0.5" d="M93.6982 125.602L90.6222 128.905L66.9346 107.593L70.0105 104.29L93.6982 125.602Z" fill="white"/>
<path opacity="0.5" d="M89.3356 103.559L92.7343 106.618L71.3021 129.636L67.9 126.578L89.3356 103.559Z" fill="white"/>
</g>
<path d="M146.043 36.3654C145.932 36.3185 145.836 36.241 145.768 36.142C145.699 36.0429 145.66 35.9263 145.655 35.8058L145.518 32.62C145.513 32.521 145.531 32.4222 145.571 32.3315C145.611 32.2408 145.672 32.1606 145.748 32.0973C145.824 32.0341 145.914 31.9894 146.011 31.9669C146.107 31.9444 146.208 31.9447 146.304 31.9677C146.57 32.0251 146.845 32.0275 147.111 31.975C147.378 31.9225 147.631 31.816 147.856 31.6622C148.062 31.5315 148.24 31.3599 148.377 31.158C148.515 30.956 148.609 30.728 148.656 30.4881C148.687 30.2451 148.669 29.9984 148.603 29.7625C148.537 29.5266 148.424 29.3064 148.271 29.1149C148.11 28.897 147.908 28.713 147.676 28.5734C147.444 28.4338 147.186 28.3413 146.918 28.3013C146.378 28.2712 145.844 28.4244 145.401 28.7359C144.959 29.0474 144.635 29.4991 144.481 30.0178C144.43 30.1749 144.32 30.3063 144.174 30.3844C144.028 30.4625 143.858 30.4814 143.699 30.4372C143.54 30.3929 143.404 30.289 143.319 30.1469C143.234 30.0048 143.208 29.8356 143.245 29.6745C143.479 28.8586 143.986 28.148 144.682 27.6622C145.378 27.1765 146.22 26.9451 147.066 27.007C147.507 27.0657 147.931 27.2124 148.314 27.4382C148.696 27.6641 149.03 27.9646 149.294 28.3219C149.551 28.653 149.739 29.0323 149.847 29.4374C149.955 29.8425 149.981 30.2652 149.922 30.6803C149.844 31.0949 149.682 31.4891 149.446 31.8386C149.21 32.1881 148.905 32.4856 148.549 32.7127C148.034 33.0594 147.432 33.2556 146.812 33.2791L146.918 35.7371C146.922 35.8451 146.899 35.9524 146.851 36.0489C146.802 36.1455 146.73 36.2283 146.641 36.2896C146.552 36.3508 146.449 36.3887 146.341 36.3995C146.234 36.4104 146.125 36.3939 146.026 36.3516L146.043 36.3654Z" fill="#B1B1B1"/>
<path d="M146.984 37.67C146.991 37.7736 146.968 37.8771 146.916 37.9673C146.865 38.0575 146.787 38.1304 146.694 38.1767C146.601 38.223 146.497 38.2407 146.393 38.2275C146.29 38.2143 146.194 38.1708 146.115 38.1025C146.037 38.0343 145.98 37.9443 145.953 37.844C145.926 37.7437 145.929 37.6376 145.962 37.5391C145.995 37.4406 146.057 37.3541 146.139 37.2906C146.222 37.2272 146.321 37.1895 146.425 37.1825C146.493 37.1773 146.563 37.1859 146.628 37.2077C146.694 37.2295 146.754 37.264 146.806 37.3094C146.858 37.3547 146.901 37.4099 146.931 37.4718C146.962 37.5337 146.98 37.6011 146.984 37.67Z" fill="#B1B1B1"/>
<path d="M135.014 31.8716C135.029 31.8037 135.039 31.7349 135.045 31.6657C135.045 31.5146 135.083 31.3224 135.11 31.0512C135.144 30.7182 135.2 30.3879 135.278 30.0624C135.323 29.8702 135.347 29.6574 135.416 29.4411C135.484 29.2248 135.553 28.9914 135.628 28.7545C136.026 27.5808 136.605 26.4768 137.345 25.4828C138.314 24.1957 139.544 23.1267 140.953 22.3451C141.755 21.8928 142.609 21.5401 143.497 21.2946C144.455 21.0407 145.441 20.9115 146.432 20.9101C146.954 20.9017 147.476 20.9292 147.994 20.9925C148.258 21.0199 148.519 21.0886 148.784 21.1332C149.051 21.179 149.315 21.2433 149.573 21.3255C150.655 21.6279 151.685 22.0945 152.625 22.709C154.717 24.0654 156.31 26.0658 157.164 28.4077C157.623 29.6622 157.856 30.9887 157.85 32.3248C157.864 33.7012 157.621 35.0682 157.133 36.3551L156.978 36.7465L156.958 36.798L156.978 36.8495C157.84 38.8303 158.695 40.7768 159.501 42.6615L159.646 42.4967L154.496 40.5228L154.434 40.4987L154.383 40.5468C153.021 41.8667 151.353 42.8291 149.529 43.3481C147.97 43.7773 146.338 43.871 144.74 43.623C143.142 43.3751 141.615 42.7911 140.259 41.9097C139.149 41.1817 138.171 40.2704 137.365 39.2148C136.199 37.674 135.443 35.8619 135.168 33.9486C135.127 33.6053 135.093 33.3169 135.062 33.056C135.031 32.7951 135.062 32.5823 135.045 32.4003C135.028 32.2184 135.045 32.0982 135.045 31.9987C135.062 31.9961 135.077 31.9871 135.088 31.9735C135.099 31.96 135.104 31.9429 135.103 31.9256C135.102 31.9083 135.094 31.8922 135.081 31.8804C135.068 31.8687 135.052 31.8621 135.034 31.8621C135.017 31.8621 135 31.8687 134.988 31.8804C134.975 31.8922 134.967 31.9083 134.966 31.9256C134.965 31.9429 134.97 31.96 134.981 31.9735C134.992 31.9871 135.007 31.9961 135.024 31.9987C135.024 32.0982 135.024 32.2321 135.024 32.4003C135.024 32.5685 135.024 32.802 135.024 33.0629C135.024 33.3238 135.083 33.6225 135.117 33.9623C135.23 34.7881 135.426 35.6001 135.704 36.386C136.097 37.4239 136.626 38.4051 137.276 39.3041C138.085 40.3785 139.07 41.3072 140.191 42.0505C141.563 42.9539 143.112 43.5552 144.734 43.8144C146.356 44.0737 148.015 43.9849 149.601 43.5541C151.447 43.0297 153.136 42.0581 154.517 40.7253L154.403 40.7494L159.553 42.7336L159.81 42.8332L159.697 42.5688C158.88 40.6841 158.036 38.7411 157.177 36.7568V36.8563L157.335 36.4547C157.836 35.1397 158.085 33.7422 158.07 32.3351C158.081 30.9706 157.848 29.6151 157.383 28.3322C156.511 25.9436 154.882 23.9052 152.745 22.527C151.781 21.8982 150.725 21.4233 149.614 21.1195C149.352 21.0364 149.083 20.9733 148.811 20.9307C148.543 20.8826 148.279 20.814 148.011 20.7899C147.486 20.7248 146.958 20.6949 146.429 20.7007C145.422 20.7049 144.42 20.8411 143.449 21.1058C142.549 21.3611 141.684 21.723 140.871 22.1837C139.447 22.9845 138.21 24.0786 137.242 25.3936C136.504 26.404 135.933 27.5259 135.549 28.7167C135.477 28.9639 135.409 29.2008 135.347 29.4033C135.292 29.6103 135.249 29.82 135.216 30.0316C135.143 30.3592 135.095 30.692 135.072 31.0271C135.052 31.2915 135.038 31.494 135.028 31.6451C135.013 31.7197 135.009 31.7958 135.014 31.8716Z" fill="#263238"/>
</svg>
