<svg width="123" height="151" viewBox="0 0 123 151" fill="none" xmlns="http://www.w3.org/2000/svg">
<path fill-rule="evenodd" clip-rule="evenodd" d="M61.4599 151C20.4866 132.654 0 114.351 0 96.0909V27.4545C0 20.5909 3.41444 20.5909 13.6578 13.7273C14.7626 12.9869 37.9905 0 61.4599 0C81.9141 0 99.0187 6.86364 109.262 13.7273C119.505 20.5909 122.92 20.5909 122.92 27.4545C123.1 29.454 122.92 85.7955 122.92 96.0909C122.92 114.394 102.433 132.697 61.4599 151ZM109.262 96.0909C109.262 94.5101 109.266 91.8615 109.275 87.5435C109.279 85.4594 109.287 81.4205 109.302 74.137C109.311 69.7999 109.318 66.0779 109.324 62.5262C109.349 47.2056 109.342 34.0561 109.327 29.9892C107.069 28.579 103.544 26.3942 101.686 25.1491C91.6048 18.394 76.8944 13.7273 61.4599 13.7273C46.6964 13.7273 27.5111 20.9429 21.2337 25.1491C19.3933 26.3823 15.9184 28.5371 13.6578 29.9483V96.0909C13.6578 106.444 28.8801 120.585 61.4662 135.914C94.0484 120.62 109.262 106.484 109.262 96.0909ZM54.631 79.5206L83.9466 50.0558L93.6041 59.7624L54.631 98.9339L29.3156 73.4897L38.9731 63.783L54.631 79.5206Z" fill="#333CC1"/>
</svg>
