<svg width="29" height="30" viewBox="0 0 29 30" fill="none" xmlns="http://www.w3.org/2000/svg">
<path fill-rule="evenodd" clip-rule="evenodd" d="M14.3911 29.3525H14.3852C11.9967 29.3517 9.6498 28.7524 7.56535 27.6154L0 29.6L2.02461 22.2048C0.775733 20.0405 0.118579 17.5855 0.11965 15.0702C0.12278 7.20168 6.52482 0.799988 14.3909 0.799988C18.2086 0.801635 21.7918 2.28785 24.4862 4.9854C27.1806 7.68281 28.6637 11.2683 28.6621 15.0815C28.659 22.9483 22.2595 29.3493 14.3911 29.3525ZM7.91587 25.0319L8.349 25.2889C10.1702 26.3697 12.2578 26.9415 14.3863 26.9423H14.3911C20.9288 26.9423 26.2499 21.6211 26.2525 15.0807C26.2538 11.9112 25.0212 8.93107 22.7817 6.68897C20.5422 4.44688 17.564 3.21152 14.3957 3.21042C7.85293 3.21042 2.53177 8.53109 2.52918 15.0711C2.52826 17.3124 3.15537 19.4951 4.34274 21.3836L4.62477 21.8324L3.42648 26.2095L7.91587 25.0319ZM21.0924 18.154C21.3411 18.2742 21.5091 18.3554 21.5808 18.4751C21.6699 18.6238 21.6699 19.3378 21.3729 20.1708C21.0756 21.0038 19.6511 21.764 18.9659 21.8663C18.3516 21.9582 17.5741 21.9965 16.7199 21.725C16.202 21.5607 15.5379 21.3413 14.6871 20.9739C11.3442 19.5304 9.08502 16.2904 8.65805 15.678C8.62814 15.6351 8.60722 15.6051 8.59555 15.5895L8.59268 15.5857C8.40396 15.3339 7.13952 13.6468 7.13952 11.9008C7.13952 10.2582 7.94635 9.39729 8.31774 9.001C8.34319 8.97385 8.36659 8.94888 8.38755 8.92599C8.71439 8.56899 9.10074 8.47974 9.33844 8.47974C9.57614 8.47974 9.81412 8.48194 10.0219 8.49237C10.0475 8.49366 10.0742 8.4935 10.1017 8.49334C10.3095 8.49212 10.5686 8.4906 10.8242 9.10449C10.9225 9.34075 11.0664 9.691 11.2181 10.0604C11.5249 10.8074 11.864 11.6328 11.9236 11.7522C12.0128 11.9307 12.0722 12.1389 11.9533 12.3769C11.9355 12.4126 11.919 12.4463 11.9032 12.4785C11.8139 12.6608 11.7483 12.7948 11.5968 12.9718C11.5372 13.0413 11.4756 13.1163 11.414 13.1913C11.2913 13.3407 11.1687 13.4901 11.0619 13.5965C10.8833 13.7743 10.6975 13.9672 10.9055 14.3242C11.1135 14.6812 11.8292 15.8489 12.8892 16.7945C14.0288 17.8109 15.0192 18.2405 15.5212 18.4582C15.6192 18.5008 15.6986 18.5352 15.7569 18.5644C16.1133 18.7429 16.3213 18.713 16.5294 18.4751C16.7374 18.2371 17.4208 17.4338 17.6584 17.0769C17.8961 16.7201 18.1339 16.7795 18.4607 16.8984C18.7877 17.0176 20.5408 17.8801 20.8974 18.0586C20.967 18.0934 21.0321 18.1249 21.0924 18.154Z" fill="#25D366"/>
</svg>
