<svg width="24" height="24" viewBox="0 0 24 24" fill="none" xmlns="http://www.w3.org/2000/svg">
<rect x="1" y="1" width="22" height="22" rx="2.84" stroke="#333CC1" stroke-width="2"/>
<path d="M5.299 9.30399H7.30348C7.81548 9.30399 8.25068 9.47807 8.60908 9.82623C8.96236 10.1744 9.139 10.6019 9.139 11.1088C9.139 11.6157 8.96236 12.0432 8.60908 12.3914C8.25068 12.7395 7.81548 12.9136 7.30348 12.9136H6.35884V14.68H5.299V9.30399ZM6.35884 11.9229H7.30348C7.52876 11.9229 7.71564 11.8461 7.86412 11.6925C8.0126 11.5338 8.08684 11.3392 8.08684 11.1088C8.08684 10.8733 8.0126 10.6787 7.86412 10.5251C7.71564 10.3715 7.52876 10.2947 7.30348 10.2947H6.35884V11.9229ZM9.829 9.30399H11.964C12.7013 9.30399 13.3157 9.56255 13.8072 10.0797C14.3039 10.5917 14.5522 11.2291 14.5522 11.992C14.5522 12.7549 14.3039 13.3923 13.8072 13.9043C13.3157 14.4214 12.7013 14.68 11.964 14.68H9.829V9.30399ZM10.8888 13.6662H11.964C12.43 13.6662 12.8088 13.5126 13.1007 13.2054C13.3925 12.888 13.5384 12.4835 13.5384 11.992C13.5384 11.4954 13.3925 11.0934 13.1007 10.7862C12.8088 10.4739 12.43 10.3178 11.964 10.3178H10.8888V13.6662ZM18.5142 9.30399V10.3178H16.3638V11.5926H18.4528V12.6064H16.3638V14.68H15.304V9.30399H18.5142Z" fill="#333CC1"/>
</svg>
