<svg width="24" height="24" viewBox="0 0 24 24" fill="none" xmlns="http://www.w3.org/2000/svg">
<path d="M23.332 17.3113L20.2497 14.2289C19.3604 13.3397 17.9133 13.3397 17.0241 14.2289L15.67 15.5831C12.5771 13.9635 10.0354 11.4219 8.41583 8.32898L9.77007 6.97474C10.6593 6.08547 10.6593 4.63847 9.77007 3.7492L6.68782 0.666952C5.79855 -0.222317 4.35155 -0.222317 3.46228 0.666952L0.996472 3.13283C-0.291927 4.42116 -0.33221 6.69237 0.883019 9.52793C1.9785 12.0841 3.98914 14.8992 6.54447 17.4545C9.09979 20.0098 11.9149 22.0204 14.471 23.1159C15.8454 23.7049 17.087 23.999 18.1485 23.999C19.2771 23.999 20.2022 23.6665 20.8661 23.0025L23.3319 20.5367C23.7628 20.1059 24 19.5332 24 18.9239C24.0001 18.3148 23.7628 17.742 23.332 17.3113ZM21.9557 19.1606L19.4899 21.6264C18.8223 22.2939 17.2328 22.1822 15.2376 21.3271C12.9036 20.3268 10.305 18.4628 7.92057 16.0783C5.53616 13.6939 3.67206 11.0953 2.67174 8.76132C1.81679 6.76632 1.70483 5.17668 2.37251 4.50906L4.83832 2.04325C4.96883 1.9128 5.18108 1.9128 5.31153 2.04325L8.39378 5.12549C8.52422 5.25594 8.52422 5.46826 8.39378 5.59864L6.05952 7.93296L6.35311 8.55271C8.2379 12.5317 11.4673 15.7611 15.4463 17.6459L16.0661 17.9394L18.4003 15.6052C18.4855 15.5199 18.5852 15.5072 18.6369 15.5072C18.6886 15.5072 18.7882 15.5199 18.8734 15.6051L21.9556 18.6874C22.0409 18.7726 22.0537 18.8722 22.0537 18.9239C22.0538 18.9758 22.0409 19.0753 21.9557 19.1606Z" fill="#333CC1"/>
</svg>
