<svg width="21" height="21" viewBox="0 0 21 21" fill="none" xmlns="http://www.w3.org/2000/svg">
<path d="M10.4 4.02133C12.3529 4.02133 13.6703 4.86489 14.4214 5.56978L17.3565 2.704C15.5538 1.02844 13.208 0 10.4 0C6.33249 0 2.8196 2.33422 1.10938 5.73156L4.47204 8.34311C5.3156 5.83556 7.64982 4.02133 10.4 4.02133Z" fill="#EA4335"/>
<path d="M20.3844 10.6311C20.3844 9.77599 20.3151 9.15199 20.1648 8.50488H10.4004V12.3644H16.1319C16.0164 13.3235 15.3924 14.768 14.0057 15.7387L17.2875 18.2809C19.2519 16.4667 20.3844 13.7973 20.3844 10.6311Z" fill="#4285F4"/>
<path d="M4.48356 12.4569C4.264 11.8098 4.13689 11.1165 4.13689 10.4C4.13689 9.68357 4.264 8.99023 4.472 8.34312L1.10933 5.73157C0.404444 7.14135 0 8.72446 0 10.4C0 12.0756 0.404444 13.6587 1.10933 15.0685L4.48356 12.4569Z" fill="#FBBC05"/>
<path d="M10.4002 20.8C13.2082 20.8 15.5655 19.8756 17.2873 18.2809L14.0055 15.7387C13.1273 16.3511 11.9486 16.7787 10.4002 16.7787C7.64998 16.7787 5.31576 14.9645 4.48376 12.4569L1.12109 15.0685C2.83132 18.4658 6.33265 20.8 10.4002 20.8Z" fill="#34A853"/>
</svg>
