<svg width="16" height="9" viewBox="0 0 16 9" fill="none" xmlns="http://www.w3.org/2000/svg">
<path d="M11.7269 0.252595C11.3141 -0.114326 10.682 -0.0771494 10.3151 0.335631C9.94818 0.748411 9.98536 1.38048 10.3981 1.7474L11.7269 0.252595ZM14.3356 5.24746C14.7484 5.61438 15.3805 5.5772 15.7474 5.16442C16.1143 4.75164 16.0772 4.11957 15.6644 3.75265L14.3356 5.24746ZM15.6644 5.24731C16.0771 4.88039 16.1143 4.24832 15.7474 3.83554C15.3805 3.42276 14.7484 3.38558 14.3356 3.7525L15.6644 5.24731ZM10.3981 7.25255C9.98535 7.61947 9.94817 8.25155 10.3151 8.66433C10.682 9.07711 11.3141 9.11428 11.7269 8.74736L10.3981 7.25255ZM15 5.49988C15.5523 5.49988 16 5.05217 16 4.49988C16 3.9476 15.5523 3.49988 15 3.49988V5.49988ZM1 3.49988C0.447715 3.49988 0 3.9476 0 4.49988C0 5.05217 0.447715 5.49988 1 5.49988V3.49988ZM10.3981 1.7474L14.3356 5.24746L15.6644 3.75265L11.7269 0.252595L10.3981 1.7474ZM14.3356 3.7525L10.3981 7.25255L11.7269 8.74736L15.6644 5.24731L14.3356 3.7525ZM15 3.49988H1V5.49988H15V3.49988Z" fill="#333CC1"/>
</svg>
