<svg xmlns="http://www.w3.org/2000/svg" viewBox="0 0 22.92 22.74"><defs><style>.cls-1{fill:#c80515;}</style></defs><title>notification</title><g id="Layer_2" data-name="Layer 2"><g id="Layer_1-2" data-name="Layer 1"><path d="M10.92,3.24A9.75,9.75,0,1,0,20.67,13,9.76,9.76,0,0,0,10.92,3.24Zm5.84,15.59A8.27,8.27,0,1,1,19.17,13a8.13,8.13,0,0,1-.62,3.16A8.35,8.35,0,0,1,16.76,18.83Z"/><path d="M11.67,7h-1.5v6.36l4,3.23.93-1.17-3.47-2.78Z"/><path d="M0,4.87,7.12,0,8,1.24.85,6.11Z"/><path d="M13.88,1.24,14.72,0l7.13,4.88L21,6.11Z"/><path class="cls-1" d="M18.92,9.49a4,4,0,1,0-4-4A4,4,0,0,0,18.92,9.49Z"/></g></g></svg>